{"glyphs":{"0":{"ha":681,"x_min":59,"x_max":622,"o":"m 340 -13 q 215 16 268 -13 q 127 98 162 45 q 76 226 93 151 q 59 391 59 300 q 76 556 59 481 q 127 683 93 630 q 215 765 162 736 q 340 794 268 794 q 466 765 412 794 q 553 683 519 736 q 605 556 588 630 q 622 391 622 481 q 605 226 622 300 q 553 98 588 151 q 466 16 519 45 q 340 -13 412 -13 m 340 68 q 419 87 385 68 q 474 145 452 106 q 507 245 496 184 q 517 391 517 307 q 475 635 517 558 q 340 713 432 713 q 256 690 290 713 q 201 626 222 668 q 172 525 181 585 q 163 391 163 465 q 172 256 163 315 q 201 154 181 196 q 256 91 222 113 q 340 68 290 68 z "},"1":{"ha":396,"x_min":39,"x_max":362,"o":"m 44 85 l 157 85 l 157 696 l 39 696 l 39 782 l 258 782 l 258 85 l 362 85 l 362 0 l 44 0 l 44 85 z "},"2":{"ha":635,"x_min":43,"x_max":564,"o":"m 475 256 l 561 256 l 561 0 l 45 0 q 43 35 43 18 q 60 137 43 92 q 107 220 78 182 q 172 289 136 258 q 247 349 209 321 q 322 403 286 377 q 388 457 359 429 q 434 514 416 484 q 452 580 452 544 q 416 670 452 637 q 307 702 381 702 q 239 691 267 702 q 194 655 212 680 q 170 594 177 631 q 162 505 162 557 l 64 505 q 125 723 64 653 q 307 793 186 793 q 429 774 380 793 q 509 723 479 754 q 552 655 539 692 q 564 582 564 617 q 548 500 564 537 q 506 433 532 464 q 446 374 480 401 q 376 321 412 347 q 303 271 339 296 q 237 218 267 245 q 185 160 207 191 q 155 92 163 129 l 475 92 l 475 256 z "},"3":{"ha":646,"x_min":35,"x_max":589,"o":"m 134 237 q 184 120 141 161 q 300 79 227 79 q 379 90 345 79 q 435 118 412 100 q 469 161 457 136 q 480 215 480 186 q 461 287 480 258 q 409 332 442 315 q 330 354 375 348 q 232 361 285 361 l 232 450 l 291 450 q 413 480 373 450 q 454 575 454 509 q 444 625 454 602 q 414 665 434 648 q 364 692 395 682 q 293 702 334 702 q 234 692 259 702 q 192 665 209 682 q 165 622 174 647 q 154 568 156 597 l 54 585 q 73 671 56 633 q 122 737 91 710 q 195 779 153 764 q 290 794 238 794 q 401 780 352 794 q 486 740 451 766 q 539 674 521 713 q 558 586 558 635 q 552 530 558 557 q 530 479 545 503 q 489 437 515 456 q 426 408 464 419 q 496 384 466 401 q 548 342 527 367 q 579 287 568 318 q 589 220 589 256 q 569 126 589 169 q 512 53 549 83 q 419 5 474 22 q 294 -12 363 -12 q 190 3 237 -12 q 108 49 142 18 q 54 126 73 79 q 35 235 35 172 l 134 237 z "},"4":{"ha":593,"x_min":16,"x_max":553,"o":"m 216 85 l 328 85 l 328 214 l 16 214 l 16 296 l 330 782 l 424 782 l 424 296 l 553 296 l 553 214 l 424 214 l 424 85 l 525 85 l 525 0 l 216 0 l 216 85 m 328 642 l 114 296 l 328 296 l 328 642 z "},"5":{"ha":642,"x_min":62,"x_max":592,"o":"m 159 224 q 213 113 172 152 q 319 73 253 73 q 390 86 359 73 q 442 122 421 100 q 473 176 463 145 q 484 244 484 208 q 471 323 484 290 q 438 379 459 357 q 389 413 417 401 q 329 424 361 424 q 243 405 286 424 q 161 347 201 387 l 105 378 l 105 782 l 543 782 l 543 621 l 449 621 l 449 689 l 192 689 q 182 565 186 625 q 172 441 177 505 q 243 500 201 482 q 338 518 285 518 q 443 498 396 518 q 523 442 490 478 q 574 355 556 406 q 592 245 592 305 q 576 146 592 193 q 527 64 560 100 q 441 8 493 28 q 319 -13 390 -13 q 215 3 260 -13 q 136 50 169 20 q 85 124 104 81 q 62 223 66 168 l 159 224 z "},"6":{"ha":642,"x_min":58,"x_max":588,"o":"m 481 575 q 466 630 478 606 q 435 672 454 654 q 393 699 416 690 q 345 709 370 709 q 268 691 302 709 q 209 637 233 673 q 173 551 185 602 q 160 433 160 500 q 246 476 195 462 q 355 490 298 490 q 451 472 408 490 q 524 422 494 454 q 571 347 555 390 q 588 252 588 303 q 571 148 588 196 q 522 64 554 100 q 444 8 490 28 q 338 -12 397 -12 q 216 15 269 -12 q 129 93 163 41 q 76 218 94 144 q 58 387 58 292 q 75 555 58 479 q 127 683 92 630 q 214 765 161 736 q 337 794 267 794 q 433 778 390 794 q 507 733 476 762 q 556 664 538 704 q 574 575 573 624 l 481 575 m 344 401 q 302 398 326 401 q 255 388 279 395 q 207 370 231 380 q 164 345 183 359 q 213 146 174 214 q 334 79 252 79 q 401 92 372 79 q 450 127 431 105 q 480 180 470 150 q 490 245 490 210 q 480 308 490 279 q 451 358 470 337 q 406 390 433 378 q 344 401 378 401 z "},"7":{"ha":555,"x_min":35,"x_max":549,"o":"m 549 782 l 549 695 q 440 559 486 632 q 364 408 394 486 q 319 247 334 329 q 305 85 305 165 l 429 85 l 429 0 l 82 0 l 82 85 l 199 85 q 216 264 199 177 q 264 429 233 351 q 336 574 294 507 q 428 696 378 642 l 127 696 l 127 583 l 35 583 l 35 782 l 549 782 z "},"8":{"ha":683,"x_min":52,"x_max":625,"o":"m 338 -12 q 221 4 274 -12 q 131 50 168 20 q 72 121 93 79 q 52 214 52 163 q 89 334 52 283 q 205 406 127 386 q 142 439 168 420 q 102 481 117 458 q 80 531 87 505 q 74 588 74 558 q 93 671 74 633 q 146 737 111 709 q 229 779 180 764 q 338 794 278 794 q 448 779 399 794 q 531 737 496 764 q 584 671 566 709 q 603 588 603 633 q 596 531 603 558 q 575 481 590 505 q 534 439 559 458 q 471 406 509 420 q 587 334 549 386 q 625 214 625 283 q 605 121 625 163 q 546 50 584 79 q 456 4 509 20 q 338 -12 403 -12 m 338 361 q 207 323 251 361 q 163 218 163 286 q 176 162 163 187 q 212 118 189 136 q 268 90 235 100 q 338 79 300 79 q 409 90 377 79 q 465 118 441 100 q 500 162 488 136 q 513 218 513 187 q 470 323 513 286 q 338 361 426 361 m 338 705 q 220 671 262 705 q 178 579 178 637 q 190 527 178 551 q 223 487 202 504 q 274 459 245 469 q 338 447 304 449 q 402 459 373 449 q 453 487 431 469 q 486 527 474 504 q 498 579 498 551 q 456 671 498 637 q 338 705 414 705 z "},"9":{"ha":644,"x_min":53,"x_max":583,"o":"m 159 207 q 177 152 163 176 q 210 110 190 127 q 255 83 230 92 q 309 73 281 73 q 380 91 348 73 q 434 144 412 109 q 469 234 456 180 q 481 362 481 289 q 395 310 446 328 q 286 292 343 292 q 190 310 233 292 q 117 360 147 328 q 70 435 86 392 q 53 530 53 479 q 70 635 53 587 q 119 719 87 684 q 197 774 151 754 q 303 794 244 794 q 512 691 441 794 q 583 395 583 588 q 566 227 583 302 q 514 99 549 152 q 427 17 479 45 q 304 -12 374 -12 q 208 4 251 -12 q 134 49 165 20 q 85 118 102 78 q 66 207 68 158 l 159 207 m 297 387 q 338 392 315 387 q 386 408 361 397 q 434 433 410 418 q 477 471 458 449 q 460 571 471 528 q 428 643 448 614 q 378 687 408 672 q 307 702 349 702 q 239 689 269 702 q 191 654 210 677 q 161 602 171 632 q 151 536 151 572 q 161 476 151 504 q 190 429 171 449 q 235 398 208 410 q 297 387 262 387 z "},"\u0001":{"ha":0,"x_min":0,"x_max":0,"o":""},"\u0002":{"ha":0,"x_min":0,"x_max":0,"o":""},"\u0003":{"ha":0,"x_min":0,"x_max":0,"o":""},"\u0004":{"ha":0,"x_min":0,"x_max":0,"o":""},"\u0005":{"ha":0,"x_min":0,"x_max":0,"o":""},"\u0006":{"ha":0,"x_min":0,"x_max":0,"o":""},"\u0007":{"ha":0,"x_min":0,"x_max":0,"o":""},"\b":{"ha":0,"x_min":0,"x_max":0,"o":""},"\t":{"ha":0,"x_min":0,"x_max":0,"o":""},"\u0010":{"ha":0,"x_min":0,"x_max":0,"o":""},"\u0011":{"ha":0,"x_min":0,"x_max":0,"o":""},"\u0012":{"ha":0,"x_min":0,"x_max":0,"o":""},"\u0013":{"ha":0,"x_min":0,"x_max":0,"o":""},"\u0014":{"ha":0,"x_min":0,"x_max":0,"o":""},"\u0015":{"ha":0,"x_min":0,"x_max":0,"o":""},"\u0016":{"ha":0,"x_min":0,"x_max":0,"o":""},"\u0017":{"ha":0,"x_min":0,"x_max":0,"o":""},"\u0018":{"ha":0,"x_min":0,"x_max":0,"o":""},"\u0019":{"ha":0,"x_min":0,"x_max":0,"o":""}," ":{"ha":292,"x_min":0,"x_max":0,"o":""},"!":{"ha":316,"x_min":86,"x_max":230,"o":"m 100 557 l 100 794 l 216 794 l 216 557 l 188 220 l 128 220 l 100 557 m 86 144 l 230 144 l 230 0 l 86 0 l 86 144 z "},"\"":{"ha":451,"x_min":40,"x_max":406,"o":"m 378 513 l 290 513 l 259 794 l 406 794 l 378 513 m 159 513 l 71 513 l 40 794 l 187 794 l 159 513 z "},"#":{"ha":804,"x_min":61,"x_max":747,"o":"m 160 0 l 182 226 l 61 226 l 69 300 l 193 300 l 215 497 l 75 497 l 83 572 l 226 572 l 249 794 l 332 794 l 309 572 l 530 572 l 555 794 l 639 794 l 614 572 l 747 572 l 739 497 l 603 497 l 583 300 l 734 300 l 726 226 l 572 226 l 549 0 l 467 0 l 488 226 l 266 226 l 242 0 l 160 0 m 277 300 l 498 300 l 519 497 l 298 497 l 277 300 z "},"$":{"ha":637,"x_min":60,"x_max":617,"o":"m 279 -3 q 157 59 212 12 l 157 0 l 65 0 l 65 262 l 157 262 l 157 184 q 213 124 183 147 q 279 90 242 102 l 279 361 q 194 387 234 371 q 124 428 154 402 q 77 491 94 453 q 60 583 60 528 q 76 669 60 631 q 122 733 93 707 q 192 774 152 760 q 279 793 232 789 l 279 885 l 368 885 l 368 787 q 484 732 431 772 l 484 782 l 575 782 l 575 560 l 484 560 l 484 616 q 432 669 460 648 q 368 696 404 689 l 368 449 q 461 421 416 439 q 541 375 506 404 q 596 306 575 347 q 617 208 617 264 q 599 122 617 161 q 548 54 581 83 q 469 7 515 24 q 368 -12 423 -10 l 368 -97 l 279 -97 l 279 -3 m 505 206 q 495 256 505 235 q 467 292 485 277 q 423 319 448 308 q 368 338 398 330 l 368 79 q 425 92 399 81 q 468 119 450 102 q 495 158 486 136 q 505 206 505 180 m 165 588 q 174 544 165 562 q 198 512 182 526 q 234 488 213 498 q 279 471 254 479 l 279 699 q 193 660 221 690 q 165 588 165 629 z "},"%":{"ha":1071,"x_min":45,"x_max":1030,"o":"m 397 585 q 382 490 397 530 q 342 426 367 451 q 286 389 317 401 q 221 378 254 378 q 156 389 188 378 q 100 426 125 401 q 60 490 75 451 q 45 585 45 530 q 60 680 45 641 q 100 745 75 720 q 156 782 125 770 q 221 793 188 793 q 286 782 254 793 q 342 745 317 770 q 382 680 367 720 q 397 585 397 641 m 303 585 q 296 649 303 623 q 277 692 289 675 q 251 715 266 708 q 221 722 236 722 q 191 715 205 722 q 165 692 176 708 q 146 649 153 675 q 139 585 139 623 q 146 521 139 547 q 165 479 153 495 q 191 455 176 463 q 221 448 205 448 q 251 455 236 448 q 277 479 266 463 q 296 521 289 495 q 303 585 303 547 m 829 811 l 871 777 l 231 -34 l 185 0 l 829 811 m 1030 195 q 1015 100 1030 139 q 975 35 1000 60 q 919 -1 950 10 q 854 -13 887 -13 q 789 -1 821 -13 q 733 35 758 10 q 693 100 708 60 q 677 195 677 139 q 693 290 677 250 q 733 354 708 329 q 789 391 758 379 q 854 403 821 403 q 919 391 887 403 q 975 354 950 379 q 1015 290 1000 329 q 1030 195 1030 250 m 936 195 q 929 259 936 233 q 910 301 922 285 q 884 325 899 317 q 854 332 869 332 q 824 325 838 332 q 798 301 809 317 q 779 259 786 285 q 772 195 772 233 q 779 131 772 157 q 798 88 786 104 q 824 64 809 72 q 854 57 838 57 q 884 64 869 57 q 910 88 899 72 q 929 131 922 104 q 936 195 936 157 z "},"&":{"ha":814,"x_min":38,"x_max":775,"o":"m 541 78 q 432 9 486 31 q 319 -13 379 -13 q 208 5 259 -13 q 118 54 156 23 q 59 128 81 85 q 38 220 38 171 q 91 360 38 302 q 245 454 143 417 q 187 542 208 502 q 166 625 166 583 q 181 691 166 660 q 223 744 197 722 q 285 780 250 767 q 361 793 321 793 q 436 781 401 793 q 496 746 471 768 q 537 695 522 724 q 551 631 551 665 q 542 568 551 597 q 513 513 533 539 q 461 464 493 487 q 384 421 429 441 l 547 225 q 590 302 572 260 q 619 395 608 344 l 775 395 l 775 309 l 688 309 q 650 218 670 256 q 601 151 629 181 l 650 85 l 775 85 l 775 0 l 599 0 l 541 78 m 297 389 q 142 227 142 334 q 156 171 142 198 q 195 124 170 144 q 254 92 220 104 q 330 79 289 79 q 413 96 374 79 q 488 149 452 112 l 297 389 m 335 488 q 430 554 399 522 q 460 632 460 587 q 432 689 460 669 q 361 709 404 709 q 289 688 317 709 q 261 629 261 668 q 280 569 261 601 q 335 488 298 537 z "},"'":{"ha":229,"x_min":45,"x_max":193,"o":"m 164 513 l 76 513 l 45 794 l 193 794 l 164 513 z "},"(":{"ha":354,"x_min":23,"x_max":323,"o":"m 23 351 q 47 508 23 438 q 111 632 71 578 q 207 725 152 686 q 323 790 261 764 l 323 703 q 250 649 284 680 q 189 575 215 618 q 148 478 163 533 q 132 351 132 422 q 148 223 132 279 q 189 126 163 168 q 250 53 215 83 q 323 -1 284 22 l 323 -90 q 207 -25 261 -64 q 111 69 152 14 q 47 194 71 123 q 23 351 23 264 z "},")":{"ha":354,"x_min":23,"x_max":323,"o":"m 323 351 q 299 194 323 264 q 235 69 275 123 q 139 -25 194 14 q 23 -90 85 -64 l 23 -1 q 96 53 62 22 q 157 126 131 83 q 198 223 183 168 q 214 351 214 279 q 198 478 214 422 q 157 575 183 533 q 96 649 131 618 q 23 703 62 680 l 23 790 q 139 725 85 764 q 235 632 194 686 q 299 508 275 578 q 323 351 323 438 z "},"*":{"ha":621,"x_min":22,"x_max":606,"o":"m 191 238 l 96 305 l 161 395 l 279 494 l 124 504 l 22 541 l 56 651 l 161 616 l 296 531 l 257 687 l 257 794 l 372 794 l 372 687 l 331 531 l 467 616 l 572 651 l 606 541 l 505 504 l 349 494 l 467 395 l 531 305 l 437 238 l 372 328 l 314 473 l 257 328 l 191 238 z "},"+":{"ha":710,"x_min":39,"x_max":671,"o":"m 671 408 l 671 329 l 397 329 l 397 63 l 313 63 l 313 329 l 39 329 l 39 408 l 313 408 l 313 674 l 397 674 l 397 408 l 671 408 z "},",":{"ha":281,"x_min":58,"x_max":212,"o":"m 58 143 l 212 143 l 212 0 q 204 -69 212 -39 q 179 -119 197 -99 q 131 -150 161 -140 q 58 -161 102 -161 l 58 -102 q 97 -90 81 -97 q 122 -71 113 -83 q 136 -42 132 -59 q 140 0 140 -24 l 58 0 l 58 143 z "},"-":{"ha":488,"x_min":68,"x_max":419,"o":"m 68 328 l 419 328 l 419 231 l 68 231 l 68 328 z "},".":{"ha":281,"x_min":58,"x_max":212,"o":"m 58 143 l 212 143 l 212 0 l 58 0 l 58 143 z "},"/":{"ha":538,"x_min":87,"x_max":469,"o":"m 469 794 l 175 -12 l 87 -12 l 382 794 l 469 794 z "},":":{"ha":281,"x_min":63,"x_max":217,"o":"m 63 143 l 217 143 l 217 0 l 63 0 l 63 143 m 63 556 l 217 556 l 217 413 l 63 413 l 63 556 z "},";":{"ha":281,"x_min":63,"x_max":222,"o":"m 63 556 l 217 556 l 217 413 l 63 413 l 63 556 m 68 143 l 222 143 l 222 0 q 214 -69 222 -39 q 188 -119 206 -99 q 141 -150 170 -140 q 68 -161 111 -161 l 68 -102 q 106 -90 91 -97 q 132 -71 122 -83 q 145 -42 141 -59 q 150 0 150 -24 l 68 0 l 68 143 z "},"<":{"ha":752,"x_min":37,"x_max":672,"o":"m 144 388 l 672 171 l 672 84 l 37 351 l 37 424 l 672 691 l 672 604 l 144 388 z "},"=":{"ha":781,"x_min":149,"x_max":631,"o":"m 631 456 l 631 376 l 149 376 l 149 456 l 631 456 m 631 203 l 631 123 l 149 123 l 149 203 l 631 203 z "},">":{"ha":751,"x_min":79,"x_max":714,"o":"m 79 604 l 79 691 l 714 424 l 714 351 l 79 84 l 79 171 l 608 388 l 79 604 z "},"?":{"ha":540,"x_min":37,"x_max":500,"o":"m 216 219 q 216 230 216 224 q 216 240 216 235 q 224 338 216 298 q 245 406 232 378 q 275 451 258 433 q 310 482 292 469 q 345 506 328 495 q 375 532 362 517 q 397 567 389 547 q 405 618 405 587 q 394 669 405 646 q 366 708 384 692 q 323 733 348 724 q 272 742 299 742 q 166 702 204 742 q 128 587 128 663 l 128 580 q 129 576 128 576 l 38 576 q 37 584 37 580 q 37 591 37 587 q 57 699 37 654 q 111 771 78 743 q 186 811 144 799 q 271 824 228 824 q 361 809 319 824 q 434 768 403 795 q 483 703 465 741 q 500 618 500 665 q 491 549 500 577 q 467 502 482 522 q 433 468 452 482 q 393 439 413 454 q 352 408 372 425 q 315 366 332 391 q 288 306 299 341 q 274 219 277 271 l 216 219 m 307 0 l 190 0 l 190 134 l 307 134 l 307 0 z "},"@":{"ha":962,"x_min":37,"x_max":905,"o":"m 815 -2 q 682 -72 756 -47 q 512 -97 608 -97 q 364 -80 431 -97 q 244 -34 297 -64 q 152 36 191 -5 q 87 124 113 77 q 49 224 62 172 q 37 332 37 277 q 50 445 37 389 q 91 553 64 502 q 158 648 118 604 q 249 725 197 692 q 365 776 301 758 q 505 794 429 794 q 633 780 576 794 q 734 740 690 765 q 811 679 779 714 q 864 604 844 644 q 895 518 885 563 q 905 429 905 474 q 886 306 905 366 q 831 199 867 245 q 744 124 795 152 q 629 96 693 96 q 584 115 603 96 q 560 178 565 134 q 491 115 530 134 q 412 96 452 96 q 344 110 377 96 q 285 152 311 124 q 244 220 260 180 q 229 314 229 261 q 244 419 229 366 q 291 513 260 471 q 370 582 323 555 q 480 608 417 608 q 616 519 564 608 q 617 525 616 522 q 620 537 618 529 q 624 559 621 545 q 631 596 627 573 l 723 596 q 687 431 702 498 q 664 320 673 364 q 649 253 654 277 q 641 217 644 229 q 638 203 639 205 q 638 200 638 201 q 643 182 638 190 q 658 175 648 175 q 686 182 669 175 q 721 204 703 190 q 756 240 739 218 q 789 289 774 261 q 812 352 803 317 q 821 429 821 387 q 800 537 821 485 q 739 630 779 589 q 639 694 699 670 q 502 718 579 718 q 352 689 420 718 q 233 609 283 661 q 155 486 183 557 q 127 330 127 415 q 152 186 127 251 q 227 75 178 121 q 347 3 275 28 q 512 -22 419 -22 q 768 55 667 -22 l 815 -2 m 587 407 q 556 498 587 464 q 471 532 524 532 q 407 512 435 532 q 359 460 378 492 q 331 390 340 429 q 321 313 321 351 q 328 258 321 284 q 348 213 334 233 q 383 181 362 193 q 433 170 404 170 q 493 191 465 170 q 542 247 522 213 q 575 323 563 281 q 587 407 587 366 z "},"A":{"ha":811,"x_min":-9,"x_max":819,"o":"m 595 782 l 595 702 l 527 702 q 601 481 574 564 q 636 374 627 399 q 685 221 662 296 q 726 79 708 146 l 819 79 l 819 0 l 512 0 l 512 79 l 614 79 l 556 288 l 254 288 l 197 79 l 298 79 l 298 0 l -9 0 l -9 79 l 85 79 q 129 231 104 152 q 179 390 153 309 q 232 549 205 470 q 283 702 258 628 l 216 702 l 216 782 l 595 782 m 536 370 q 498 496 522 414 q 431 702 474 578 l 380 702 q 312 496 337 578 q 275 370 288 414 l 536 370 z "},"B":{"ha":710,"x_min":45,"x_max":666,"o":"m 145 79 l 145 702 l 45 702 l 45 782 l 374 782 q 493 765 445 782 q 572 721 542 749 q 615 656 602 692 q 629 581 629 620 q 620 523 629 550 q 597 475 612 496 q 563 438 583 454 q 520 412 543 422 q 578 384 551 401 q 624 341 605 366 q 655 286 644 317 q 666 218 666 255 q 653 145 666 183 q 608 74 641 106 q 517 21 575 42 q 367 0 458 0 l 45 0 l 45 79 l 145 79 m 254 79 l 366 79 q 453 90 418 79 q 511 119 489 100 q 543 165 533 138 q 553 225 553 192 q 544 276 553 252 q 513 319 534 300 q 457 349 492 338 q 370 361 422 361 l 254 361 l 254 79 m 364 448 q 436 458 407 448 q 483 486 465 469 q 509 526 501 503 q 517 574 517 549 q 508 629 517 605 q 478 669 498 652 q 426 693 458 685 q 348 702 394 702 l 254 702 l 254 448 l 364 448 z "},"C":{"ha":847,"x_min":47,"x_max":806,"o":"m 436 -13 q 274 17 347 -13 q 152 99 202 46 q 74 226 101 152 q 47 390 47 300 q 74 554 47 479 q 153 682 101 629 q 281 765 205 735 q 454 794 357 794 q 593 766 532 794 q 696 693 654 738 l 696 782 l 785 782 l 785 545 l 700 545 q 593 663 661 625 q 439 702 525 702 q 325 679 375 702 q 239 614 274 655 q 185 516 204 572 q 167 393 167 459 q 182 271 167 328 q 231 171 197 214 q 316 104 264 128 q 444 79 369 79 q 528 88 486 79 q 605 118 569 97 q 669 173 641 139 q 714 256 697 206 l 806 208 q 736 98 778 141 q 644 31 694 56 q 541 -3 594 6 q 436 -13 487 -13 z "},"D":{"ha":862,"x_min":40,"x_max":813,"o":"m 40 79 l 148 79 l 148 702 l 40 702 l 40 782 l 416 782 q 553 766 493 782 q 656 723 612 751 q 731 659 701 696 q 779 579 761 622 q 805 490 798 536 q 813 398 813 444 q 790 235 813 308 q 719 109 768 161 q 593 28 670 57 q 406 0 515 0 l 40 0 l 40 79 m 258 79 l 424 79 q 550 104 497 79 q 636 172 602 129 q 685 272 669 214 q 701 394 701 329 q 686 514 701 458 q 636 612 671 570 q 547 678 602 654 q 413 702 492 702 l 258 702 l 258 79 z "},"E":{"ha":759,"x_min":41,"x_max":699,"o":"m 41 79 l 146 79 l 146 702 l 41 702 l 41 782 l 699 782 l 699 564 l 610 564 l 610 702 l 254 702 l 254 444 l 500 444 l 500 522 l 568 522 l 568 278 l 499 278 l 499 357 l 256 357 l 256 79 l 612 79 l 612 222 l 699 222 l 699 0 l 41 0 l 41 79 z "},"F":{"ha":682,"x_min":42,"x_max":664,"o":"m 254 358 l 254 79 l 360 79 l 360 0 l 42 0 l 42 79 l 145 79 l 145 702 l 42 702 l 42 782 l 664 782 l 664 564 l 574 564 l 574 702 l 254 702 l 254 446 l 467 446 l 467 523 l 534 523 l 534 279 l 466 279 l 466 358 l 254 358 z "},"G":{"ha":878,"x_min":45,"x_max":840,"o":"m 443 794 q 594 766 528 794 q 705 693 661 738 l 705 782 l 793 782 l 793 545 l 709 545 q 602 664 669 625 q 449 702 536 702 q 329 679 381 702 q 240 614 276 656 q 185 516 203 573 q 166 393 166 460 q 185 268 166 326 q 240 169 203 211 q 332 103 277 127 q 459 79 387 79 q 574 94 526 79 q 652 135 621 108 q 698 203 682 163 q 718 296 714 243 l 564 296 l 564 382 l 840 382 q 808 200 838 275 q 727 78 779 125 q 607 9 676 31 q 458 -12 538 -12 q 310 7 374 -12 q 201 59 247 26 q 125 133 155 91 q 77 219 95 174 q 53 310 60 264 q 45 393 45 355 q 54 485 45 438 q 83 577 63 532 q 133 661 102 622 q 208 730 164 701 q 311 777 252 760 q 443 794 369 794 z "},"H":{"ha":878,"x_min":49,"x_max":829,"o":"m 49 79 l 143 79 l 143 702 l 49 702 l 49 782 l 349 782 l 349 702 l 252 702 l 252 452 l 625 452 l 625 702 l 529 702 l 529 782 l 829 782 l 829 702 l 734 702 l 734 79 l 829 79 l 829 0 l 529 0 l 529 79 l 626 79 l 626 365 l 252 365 l 252 79 l 349 79 l 349 0 l 49 0 l 49 79 z "},"I":{"ha":394,"x_min":51,"x_max":341,"o":"m 51 79 l 142 79 l 142 702 l 51 702 l 51 782 l 341 782 l 341 702 l 252 702 l 252 79 l 341 79 l 341 0 l 51 0 l 51 79 z "},"J":{"ha":378,"x_min":-43,"x_max":348,"o":"m -43 -41 q -8 -43 -28 -43 q 38 -44 11 -44 q 112 -17 91 -44 q 134 65 134 9 l 134 702 l 28 702 l 28 782 l 348 782 l 348 702 l 244 702 l 244 53 q 227 -42 244 -4 q 183 -102 210 -79 q 122 -133 156 -124 q 56 -142 89 -142 q 4 -139 31 -142 q -43 -132 -23 -136 l -43 -41 z "},"K":{"ha":772,"x_min":43,"x_max":760,"o":"m 444 79 l 531 79 l 254 398 l 254 79 l 349 79 l 349 0 l 43 0 l 43 79 l 145 79 l 145 702 l 43 702 l 43 782 l 359 782 l 359 702 l 254 702 l 254 419 l 539 702 l 447 702 l 447 782 l 753 782 l 753 702 l 665 702 l 380 410 l 671 79 l 760 79 l 760 0 l 444 0 l 444 79 z "},"L":{"ha":667,"x_min":40,"x_max":633,"o":"m 40 79 l 147 79 l 147 702 l 40 702 l 40 782 l 361 782 l 361 702 l 256 702 l 256 79 l 534 79 l 534 307 l 633 307 l 633 0 l 40 0 l 40 79 z "},"M":{"ha":1069,"x_min":44,"x_max":1025,"o":"m 144 702 l 44 702 l 44 782 l 305 782 l 419 499 l 531 215 l 760 782 l 1025 782 l 1025 702 l 925 702 l 925 79 l 1025 79 l 1025 0 l 734 0 l 734 79 l 825 79 l 825 694 l 543 0 l 515 0 l 235 693 l 235 79 l 326 79 l 326 0 l 44 0 l 44 79 l 144 79 l 144 702 z "},"N":{"ha":897,"x_min":38,"x_max":877,"o":"m 38 79 l 153 79 l 153 702 l 38 702 l 38 782 l 297 782 l 669 143 l 669 702 l 557 702 l 557 782 l 877 782 l 877 702 l 760 702 l 760 0 l 635 0 l 243 676 l 243 79 l 358 79 l 358 0 l 38 0 l 38 79 z "},"O":{"ha":896,"x_min":45,"x_max":852,"o":"m 45 390 q 73 549 45 475 q 152 677 100 623 q 279 763 204 732 q 448 794 354 794 q 617 763 542 794 q 744 676 692 731 q 824 548 796 622 q 852 390 852 474 q 824 232 852 306 q 744 104 796 159 q 617 19 692 50 q 448 -13 542 -13 q 279 18 353 -13 q 152 104 204 50 q 73 232 100 159 q 45 390 45 305 m 165 390 q 185 269 165 326 q 242 171 205 213 q 331 104 279 128 q 448 79 383 79 q 565 104 512 79 q 654 171 617 128 q 711 269 691 213 q 731 390 731 326 q 711 512 731 455 q 654 611 691 569 q 565 678 617 654 q 448 702 512 702 q 331 678 383 702 q 242 611 279 654 q 185 512 205 569 q 165 390 165 455 z "},"P":{"ha":699,"x_min":43,"x_max":673,"o":"m 43 79 l 145 79 l 145 702 l 43 702 l 43 782 l 404 782 q 537 760 486 782 q 620 704 589 738 q 661 627 650 669 q 673 546 673 585 q 649 434 673 478 q 583 365 625 391 q 482 330 541 340 q 354 320 423 320 l 255 320 l 255 79 l 362 79 l 362 0 l 43 0 l 43 79 m 254 391 l 374 391 q 466 403 429 391 q 523 436 502 415 q 552 486 544 457 q 561 547 561 514 q 521 662 561 621 q 408 702 481 702 l 254 702 l 254 391 z "},"Q":{"ha":897,"x_min":45,"x_max":852,"o":"m 45 390 q 73 549 45 475 q 153 677 101 623 q 280 763 205 732 q 448 794 355 794 q 617 763 543 794 q 745 676 692 731 q 825 548 797 622 q 852 390 852 474 q 828 245 852 313 q 756 125 803 178 q 643 39 710 73 q 492 -3 576 5 q 539 -19 515 -10 q 588 -36 563 -28 q 637 -50 612 -44 q 688 -55 663 -55 q 714 -53 701 -55 q 739 -47 726 -52 l 740 -148 q 675 -157 709 -157 q 628 -152 650 -157 q 584 -139 605 -146 q 541 -122 562 -132 q 496 -106 519 -113 q 448 -93 473 -98 q 394 -88 423 -88 q 299 -98 342 -88 q 216 -124 255 -107 l 216 -31 q 289 -2 256 -10 q 348 6 321 6 q 220 58 277 22 q 125 144 164 94 q 66 257 86 195 q 45 390 45 320 m 165 390 q 185 267 165 323 q 243 169 205 210 q 332 103 280 127 q 448 79 384 79 q 565 103 513 79 q 655 169 618 127 q 712 267 692 210 q 732 390 732 323 q 712 512 732 455 q 655 611 692 569 q 565 678 618 654 q 448 702 513 702 q 332 678 384 702 q 243 611 280 654 q 185 512 205 569 q 165 390 165 455 z "},"R":{"ha":751,"x_min":39,"x_max":752,"o":"m 39 79 l 149 79 l 149 702 l 39 702 l 39 782 l 412 782 q 528 767 479 782 q 608 726 576 753 q 655 663 640 700 q 670 580 670 625 q 627 448 670 500 q 494 378 585 396 l 653 79 l 752 79 l 752 0 l 581 0 l 389 365 l 258 365 l 258 79 l 363 79 l 363 0 l 39 0 l 39 79 m 409 446 q 482 457 453 446 q 528 488 511 469 q 551 531 545 507 q 558 580 558 555 q 517 670 558 637 q 404 702 476 702 l 258 702 l 258 446 l 409 446 z "},"S":{"ha":659,"x_min":60,"x_max":617,"o":"m 357 -12 q 157 59 242 -12 l 157 0 l 65 0 l 65 262 l 157 262 l 157 184 q 244 105 197 131 q 355 79 291 79 q 417 89 389 79 q 465 116 445 99 q 495 156 484 133 q 505 206 505 179 q 488 269 505 244 q 441 310 471 294 q 371 338 411 327 q 286 359 332 349 q 199 385 240 370 q 126 426 157 401 q 78 490 96 452 q 60 583 60 528 q 79 674 60 635 q 131 741 98 714 q 209 781 164 767 q 304 794 254 794 q 399 778 354 794 q 484 732 445 762 l 484 782 l 575 782 l 575 560 l 484 560 l 484 616 q 413 680 452 659 q 319 702 374 702 q 252 693 281 702 q 204 669 224 684 q 175 633 185 654 q 165 588 165 612 q 186 523 165 547 q 242 485 208 499 q 319 460 276 470 q 407 439 362 451 q 488 409 450 428 q 554 363 526 391 q 600 297 583 335 q 617 208 617 258 q 598 120 617 161 q 545 51 579 80 q 463 4 511 21 q 357 -12 415 -12 z "},"T":{"ha":701,"x_min":29,"x_max":671,"o":"m 178 79 l 296 79 l 296 702 l 117 702 l 117 546 l 29 546 l 29 782 l 671 782 l 671 546 l 583 546 l 583 702 l 407 702 l 407 79 l 525 79 l 525 0 l 178 0 l 178 79 z "},"U":{"ha":821,"x_min":23,"x_max":798,"o":"m 23 702 l 23 782 l 330 782 l 330 702 l 233 702 l 233 256 q 242 180 233 213 q 272 125 252 147 q 327 91 293 102 q 408 79 360 79 q 495 92 460 79 q 550 127 530 104 q 580 185 571 151 q 589 264 589 220 l 589 702 l 492 702 l 492 782 l 798 782 l 798 702 l 697 702 q 697 546 697 621 q 698 411 698 471 q 698 311 698 351 q 699 258 699 270 q 676 133 699 184 q 614 50 653 82 q 525 2 576 17 q 416 -12 473 -12 q 269 11 326 -12 q 179 72 212 34 q 135 158 147 109 q 123 259 123 207 q 123 284 123 263 q 124 337 123 305 q 124 407 124 368 q 124 486 124 446 q 125 564 125 526 q 125 629 125 601 l 125 702 l 23 702 z "},"V":{"ha":819,"x_min":-14,"x_max":831,"o":"m 85 702 l -14 702 l -14 782 l 294 782 l 294 702 l 199 702 l 414 125 l 625 702 l 530 702 l 530 782 l 831 782 l 831 702 l 732 702 l 463 0 l 358 0 l 85 702 z "},"W":{"ha":1193,"x_min":-14,"x_max":1202,"o":"m 85 702 l -14 702 l -14 782 l 287 782 l 287 702 l 189 702 l 355 142 l 439 422 l 518 702 l 423 702 l 423 782 l 775 782 l 775 702 l 681 702 l 844 142 l 929 422 l 1010 702 l 912 702 l 912 782 l 1202 782 l 1202 702 l 1105 702 l 895 -7 l 788 -7 l 594 629 l 403 -7 l 299 -7 l 85 702 z "},"X":{"ha":779,"x_min":12,"x_max":773,"o":"m 12 79 l 121 79 l 334 395 l 124 702 l 20 702 l 20 782 l 333 782 l 333 702 l 241 702 l 392 478 l 545 702 l 450 702 l 450 782 l 753 782 l 753 702 l 650 702 l 446 404 l 668 79 l 773 79 l 773 0 l 453 0 l 453 79 l 547 79 l 387 319 l 227 79 l 325 79 l 325 0 l 12 0 l 12 79 z "},"Y":{"ha":766,"x_min":-12,"x_max":777,"o":"m 222 79 l 330 79 l 330 359 l 87 702 l -12 702 l -12 782 l 308 782 l 308 702 l 206 702 l 392 439 l 566 702 l 465 702 l 465 782 l 777 782 l 777 702 l 671 702 l 438 359 l 438 79 l 549 79 l 549 0 l 222 0 l 222 79 z "},"Z":{"ha":685,"x_min":42,"x_max":633,"o":"m 42 87 l 488 702 l 150 702 l 150 565 l 62 565 l 62 782 l 627 782 l 627 706 l 174 79 l 546 79 l 546 227 l 633 227 l 633 0 l 42 0 l 42 87 z "},"[":{"ha":386,"x_min":100,"x_max":367,"o":"m 367 857 l 367 783 l 197 783 l 197 -76 l 367 -76 l 367 -149 l 100 -149 l 100 857 l 367 857 z "},"\\":{"ha":538,"x_min":87,"x_max":469,"o":"m 175 794 l 469 -12 l 382 -12 l 87 794 l 175 794 z "},"]":{"ha":386,"x_min":22,"x_max":289,"o":"m 289 857 l 289 -149 l 22 -149 l 22 -76 l 192 -76 l 192 783 l 22 783 l 22 857 l 289 857 z "},"^":{"ha":560,"x_min":26,"x_max":534,"o":"m 534 410 l 432 410 l 281 705 l 128 410 l 26 410 l 230 794 l 334 794 l 534 410 z "},"_":{"ha":609,"x_min":0,"x_max":609,"o":"m 609 -56 l 609 -135 l 0 -135 l 0 -56 l 609 -56 z "},"`":{"ha":381,"x_min":71,"x_max":279,"o":"m 198 620 l 71 794 l 212 794 l 279 620 l 198 620 z "},"a":{"ha":603,"x_min":37,"x_max":602,"o":"m 69 480 q 160 536 106 517 q 284 556 214 556 q 391 541 348 556 q 458 500 433 526 q 494 443 484 475 q 505 376 505 410 l 505 73 l 602 73 l 602 0 l 414 0 l 413 56 q 362 23 386 37 q 316 2 338 10 q 270 -9 293 -5 q 222 -12 247 -12 q 145 1 179 -12 q 86 36 111 14 q 50 86 62 58 q 37 146 37 115 q 56 231 37 197 q 106 283 75 264 q 181 311 138 303 q 273 319 224 319 q 337 315 305 319 q 404 305 369 312 l 404 371 q 394 419 404 399 q 367 452 384 439 q 326 470 349 464 q 277 475 303 475 q 193 460 231 475 q 132 414 155 445 l 69 480 m 404 239 q 349 244 382 239 q 279 250 316 250 q 227 246 253 250 q 179 231 200 242 q 146 200 159 220 q 133 146 133 180 q 140 113 133 129 q 160 85 146 97 q 192 67 173 74 q 236 60 211 60 q 281 64 258 60 q 327 76 304 68 q 368 95 349 84 q 404 121 388 106 l 404 239 z "},"b":{"ha":726,"x_min":16,"x_max":687,"o":"m 16 73 l 114 73 l 114 700 l 17 700 l 17 782 l 216 782 l 216 479 q 307 537 259 519 q 417 556 355 556 q 530 534 479 556 q 615 475 580 513 q 668 387 650 437 q 687 278 687 336 q 668 165 687 218 q 614 73 649 112 q 529 11 579 33 q 416 -12 479 -12 q 357 -6 387 -12 q 302 11 328 -1 q 253 38 275 22 q 216 75 231 54 l 213 0 l 16 0 l 16 73 m 395 73 q 472 88 438 73 q 529 130 506 103 q 564 192 552 156 q 576 269 576 227 q 564 346 576 309 q 527 410 551 382 q 469 454 503 438 q 393 471 435 471 q 336 462 362 471 q 287 440 309 454 q 247 412 265 427 q 216 382 229 397 l 216 155 q 249 127 231 142 q 290 100 268 113 q 339 80 313 88 q 395 73 365 73 z "},"c":{"ha":610,"x_min":39,"x_max":562,"o":"m 562 106 q 463 19 526 51 q 315 -13 401 -13 q 188 13 240 -13 q 102 80 135 39 q 54 171 69 121 q 39 270 39 221 q 59 385 39 332 q 117 475 80 437 q 204 535 153 513 q 314 556 254 556 q 372 549 346 556 q 418 530 398 541 q 451 506 438 519 q 469 484 464 494 l 466 546 l 556 546 l 556 351 l 469 351 q 452 397 463 375 q 424 435 441 418 q 380 461 406 452 q 319 471 354 471 q 191 418 235 471 q 146 271 146 365 q 158 190 146 227 q 190 127 169 153 q 243 87 212 101 q 317 73 275 73 q 423 96 375 73 q 502 167 471 120 l 562 106 z "},"d":{"ha":726,"x_min":39,"x_max":712,"o":"m 609 782 l 609 73 l 712 73 l 712 0 l 506 0 l 505 67 q 415 6 462 24 q 311 -12 369 -12 q 210 6 258 -12 q 123 60 161 24 q 62 149 85 96 q 39 271 39 201 q 59 381 39 329 q 114 472 78 433 q 200 533 149 511 q 313 556 251 556 q 420 537 373 556 q 509 484 468 519 l 509 702 l 399 702 l 399 782 l 609 782 m 329 73 q 385 80 359 73 q 433 99 411 87 q 474 124 456 111 q 507 151 492 138 l 507 385 q 474 413 493 398 q 432 441 455 429 q 383 462 410 454 q 326 471 356 471 q 250 455 283 471 q 194 411 216 439 q 159 347 171 384 q 147 269 147 310 q 159 194 147 229 q 195 131 172 158 q 252 89 218 104 q 329 73 286 73 z "},"e":{"ha":648,"x_min":37,"x_max":609,"o":"m 149 248 q 165 176 151 208 q 204 121 179 144 q 264 85 229 98 q 343 73 299 73 q 395 79 370 73 q 444 96 421 85 q 487 123 467 107 q 520 158 507 138 l 589 106 q 493 21 555 54 q 340 -12 432 -12 q 214 10 270 -12 q 118 71 157 33 q 58 162 79 110 q 37 273 37 214 q 60 387 37 334 q 123 476 83 439 q 218 535 163 514 q 338 556 273 556 q 456 532 405 556 q 541 467 507 508 q 592 372 575 426 q 609 259 609 318 l 609 248 l 149 248 m 511 317 q 494 378 507 350 q 458 427 480 406 q 407 459 437 448 q 339 471 376 471 q 266 459 298 471 q 210 428 233 448 q 172 380 186 408 q 151 317 157 351 l 511 317 z "},"f":{"ha":376,"x_min":38,"x_max":414,"o":"m 44 73 l 125 73 l 125 471 l 38 471 l 38 546 l 125 546 l 126 640 q 138 707 126 678 q 170 755 149 736 q 219 784 191 774 q 283 794 248 794 q 370 766 335 794 q 414 688 406 739 l 340 664 q 318 702 333 690 q 286 714 302 714 q 265 711 275 714 q 246 698 254 707 q 233 673 238 689 q 228 633 228 658 l 228 546 l 332 546 l 332 471 l 228 471 l 228 73 l 338 73 l 338 0 l 44 0 l 44 73 z "},"g":{"ha":725,"x_min":39,"x_max":711,"o":"m 329 -244 q 270 -240 297 -244 q 218 -229 243 -237 q 170 -209 193 -221 q 123 -180 146 -197 l 168 -111 q 243 -148 203 -136 q 324 -160 283 -160 q 387 -152 355 -160 q 446 -125 419 -144 q 490 -75 473 -106 q 507 2 507 -44 l 507 63 q 471 38 493 50 q 422 18 449 27 q 367 5 396 9 q 311 0 338 0 q 197 21 248 0 q 112 78 147 42 q 58 163 77 115 q 39 266 39 212 q 59 377 39 325 q 114 470 78 430 q 201 533 150 509 q 315 556 252 556 q 507 481 422 556 l 507 546 l 711 546 l 711 471 l 609 471 l 609 258 q 609 182 609 220 q 609 113 609 144 q 610 63 610 83 q 610 39 610 43 q 585 -96 610 -42 q 520 -183 560 -151 q 431 -230 481 -216 q 329 -244 380 -244 m 329 85 q 384 92 358 85 q 433 109 410 98 q 474 131 455 119 q 507 155 492 144 l 507 387 q 476 415 494 400 q 435 442 458 429 q 387 463 413 454 q 331 471 361 471 q 254 455 288 471 q 196 411 220 439 q 160 347 172 384 q 147 269 147 310 q 159 197 147 231 q 195 138 172 163 q 252 99 218 113 q 329 85 286 85 z "},"h":{"ha":694,"x_min":14,"x_max":695,"o":"m 14 73 l 117 73 l 117 700 l 16 700 l 16 782 l 218 782 l 218 492 q 425 556 315 556 q 598 377 598 556 q 598 362 598 375 q 598 328 598 349 q 597 280 597 307 q 597 227 597 254 l 597 73 l 695 73 l 695 0 l 428 0 l 428 73 l 497 73 l 497 358 q 493 402 497 381 q 478 438 489 422 q 449 462 467 453 q 402 471 431 471 q 312 456 361 471 q 218 412 264 442 l 218 73 l 317 73 l 317 0 l 14 0 l 14 73 z "},"i":{"ha":345,"x_min":40,"x_max":325,"o":"m 40 73 l 132 73 l 132 471 l 40 471 l 40 546 l 233 546 l 233 73 l 325 73 l 325 0 l 40 0 l 40 73 m 119 723 q 124 746 119 735 q 137 765 129 757 q 157 778 146 773 q 181 782 168 782 q 225 765 208 782 q 243 723 243 748 q 225 681 243 698 q 181 664 208 664 q 157 668 168 664 q 137 681 146 673 q 124 700 129 689 q 119 723 119 711 z "},"j":{"ha":299,"x_min":-41,"x_max":222,"o":"m -41 -159 q -14 -161 -25 -161 q 12 -162 -2 -162 q 59 -155 40 -162 q 90 -131 78 -147 q 106 -90 101 -115 q 111 -29 111 -65 l 111 471 l 7 471 l 7 546 l 213 546 l 213 3 q 208 -94 213 -49 q 184 -174 203 -140 q 127 -229 165 -208 q 21 -250 88 -249 q -10 -249 4 -250 q -41 -245 -24 -248 l -41 -159 m 97 723 q 115 765 97 748 q 159 782 133 782 q 204 765 186 782 q 222 723 222 748 q 204 681 222 698 q 159 664 186 664 q 115 681 133 664 q 97 723 97 698 z "},"k":{"ha":675,"x_min":14,"x_max":655,"o":"m 14 73 l 117 73 l 117 700 l 14 700 l 14 782 l 218 782 l 218 292 l 441 471 l 347 471 l 347 546 l 650 546 l 650 471 l 560 471 l 335 281 l 567 73 l 655 73 l 655 0 l 370 0 l 370 73 l 441 73 l 218 275 l 218 73 l 289 73 l 289 0 l 14 0 l 14 73 z "},"l":{"ha":330,"x_min":14,"x_max":309,"o":"m 14 73 l 117 73 l 117 700 l 16 700 l 16 782 l 218 782 l 218 73 l 309 73 l 309 0 l 14 0 l 14 73 z "},"m":{"ha":1054,"x_min":39,"x_max":1046,"o":"m 141 471 l 44 471 l 44 546 l 240 546 l 243 473 q 336 534 290 513 q 435 556 382 556 q 527 531 490 556 q 583 461 564 506 q 684 532 637 507 q 786 556 732 556 q 859 543 828 556 q 909 507 889 530 q 938 452 928 484 q 947 385 947 421 l 947 73 l 1046 73 l 1046 0 l 771 0 l 771 73 l 848 73 l 848 364 q 828 442 848 413 q 761 471 808 471 q 713 461 738 471 q 666 439 688 452 q 625 410 644 425 q 597 380 607 394 l 597 73 l 682 73 l 682 0 l 418 0 l 418 73 l 494 73 l 494 362 q 471 445 494 420 q 406 471 449 471 q 325 449 363 471 q 243 387 287 428 l 243 73 l 328 73 l 328 0 l 39 0 l 39 73 l 141 73 l 141 471 z "},"n":{"ha":699,"x_min":39,"x_max":691,"o":"m 43 73 l 140 73 l 140 471 l 39 471 l 39 546 l 239 546 l 242 475 q 339 536 294 516 q 434 556 384 556 q 501 544 471 556 q 551 509 530 532 q 583 453 572 486 q 593 381 593 421 l 593 73 l 691 73 l 691 0 l 418 0 l 418 73 l 493 73 l 493 344 q 475 437 493 404 q 408 471 456 471 q 320 446 361 471 q 242 387 279 422 l 242 73 l 340 73 l 340 0 l 43 0 l 43 73 z "},"o":{"ha":655,"x_min":39,"x_max":617,"o":"m 327 73 q 402 88 369 73 q 460 130 436 103 q 496 193 484 157 q 509 273 509 230 q 496 350 509 314 q 460 413 484 387 q 402 455 436 440 q 327 471 369 471 q 252 455 285 471 q 195 413 218 440 q 159 350 172 387 q 146 273 146 314 q 159 193 146 230 q 195 130 172 157 q 252 88 218 103 q 327 73 285 73 m 327 -12 q 207 10 260 -12 q 117 71 154 33 q 59 162 79 110 q 39 273 39 214 q 59 383 39 332 q 117 473 79 435 q 208 534 155 512 q 328 556 262 556 q 448 534 394 556 q 539 473 501 512 q 597 383 576 435 q 617 273 617 332 q 597 162 617 214 q 538 71 576 110 q 447 10 500 33 q 327 -12 393 -12 z "},"p":{"ha":718,"x_min":9,"x_max":679,"o":"m 9 -165 l 113 -165 l 113 471 l 17 471 l 17 546 l 207 546 l 212 473 q 302 535 251 514 q 408 556 353 556 q 522 534 471 556 q 607 473 572 511 q 660 382 642 434 q 679 271 679 330 q 660 161 679 213 q 605 71 640 110 q 519 10 569 33 q 407 -12 469 -12 q 301 6 352 -12 q 212 59 251 24 l 212 -166 l 324 -166 l 324 -250 l 9 -250 l 9 -165 m 392 73 q 469 88 435 73 q 526 130 503 103 q 562 192 549 156 q 574 269 574 227 q 561 346 574 309 q 525 410 549 382 q 467 454 500 438 q 390 471 433 471 q 333 463 359 471 q 283 442 306 454 q 243 415 261 430 q 212 387 225 400 l 212 143 q 247 118 228 131 q 288 96 265 106 q 336 79 310 85 q 392 73 362 73 z "},"q":{"ha":721,"x_min":39,"x_max":710,"o":"m 395 -165 l 505 -165 l 505 61 q 417 6 467 24 q 310 -12 368 -12 q 198 10 248 -12 q 113 71 148 33 q 58 162 77 110 q 39 273 39 214 q 58 382 39 331 q 114 473 77 434 q 202 534 150 511 q 322 556 255 556 q 422 535 374 556 q 505 474 470 515 q 506 487 505 475 q 507 511 506 498 l 509 546 l 703 546 l 703 471 l 607 471 l 607 -166 l 710 -166 l 710 -250 l 395 -250 l 395 -165 m 326 73 q 381 80 355 73 q 430 100 408 88 q 471 127 452 113 q 505 155 490 142 l 505 382 q 474 412 492 397 q 434 441 456 428 q 387 462 412 454 q 333 471 361 471 q 249 454 285 471 q 190 410 214 438 q 155 346 167 382 q 144 269 144 309 q 156 192 144 227 q 191 130 168 156 q 248 88 214 103 q 326 73 282 73 z "},"r":{"ha":516,"x_min":39,"x_max":498,"o":"m 43 73 l 153 73 l 153 471 l 39 471 l 39 546 l 235 546 l 236 427 q 275 489 254 465 q 321 529 296 514 q 374 550 345 544 q 435 556 402 556 q 498 552 464 556 l 494 458 q 484 459 494 458 q 463 459 474 459 q 440 460 451 460 q 428 460 430 460 q 345 446 378 460 q 291 405 311 431 q 263 341 271 378 q 254 258 254 304 l 254 73 l 374 73 l 374 0 l 43 0 l 43 73 z "},"s":{"ha":549,"x_min":51,"x_max":510,"o":"m 52 178 l 142 178 l 142 142 q 163 112 151 125 q 191 89 174 98 q 230 73 208 79 q 282 68 252 68 q 374 88 342 68 q 406 147 406 109 q 397 182 406 169 q 373 203 389 195 q 335 216 357 212 q 286 224 313 220 q 202 240 243 231 q 126 268 160 250 q 72 318 93 287 q 51 397 51 349 q 65 460 51 431 q 106 510 79 489 q 169 544 132 532 q 252 556 206 556 q 329 542 293 556 q 391 505 365 527 l 391 546 l 479 546 l 479 372 l 391 372 l 391 418 q 256 476 343 476 q 176 456 205 476 q 146 401 146 436 q 162 366 146 379 q 203 344 178 353 q 261 330 229 336 q 328 317 294 324 q 395 300 362 311 q 453 271 428 290 q 494 225 479 253 q 510 155 510 197 q 495 86 510 117 q 451 34 479 56 q 383 0 423 12 q 294 -12 343 -12 q 210 -1 247 -12 q 142 34 173 9 l 142 0 l 52 0 l 52 178 z "},"t":{"ha":358,"x_min":24,"x_max":348,"o":"m 24 546 l 108 546 l 108 721 l 210 743 l 210 546 l 328 546 l 328 471 l 210 471 l 210 196 q 211 142 210 165 q 218 103 212 119 q 235 80 223 88 q 268 73 246 73 l 348 73 l 348 0 l 254 0 q 172 16 201 0 q 128 59 142 31 q 111 123 114 86 q 108 203 108 160 l 108 471 l 24 471 l 24 546 z "},"u":{"ha":674,"x_min":22,"x_max":658,"o":"m 460 0 l 456 68 q 367 7 412 27 q 272 -12 323 -12 q 195 1 227 -12 q 143 39 163 14 q 113 98 122 63 q 103 177 103 133 l 103 471 l 22 471 l 22 546 l 206 546 l 206 182 q 225 101 206 129 q 291 73 244 73 q 381 100 338 73 q 456 170 424 127 l 456 471 l 358 471 l 358 546 l 559 546 l 559 73 l 658 73 l 658 0 l 460 0 z "},"v":{"ha":651,"x_min":-1,"x_max":652,"o":"m 98 471 l -1 471 l -1 546 l 277 546 l 277 471 l 199 471 l 331 116 l 463 471 l 380 471 l 380 546 l 652 546 l 652 471 l 564 471 l 378 0 l 286 0 l 98 471 z "},"w":{"ha":951,"x_min":1,"x_max":951,"o":"m 75 471 l 1 471 l 1 546 l 241 546 l 241 471 l 163 471 l 222 279 l 280 106 l 341 280 l 400 471 l 336 471 l 336 546 l 606 546 l 606 471 l 541 471 l 664 99 l 781 471 l 698 471 l 698 546 l 951 546 l 951 471 l 868 471 l 709 0 l 613 0 l 474 411 l 330 0 l 233 0 l 75 471 z "},"x":{"ha":671,"x_min":24,"x_max":643,"o":"m 24 73 l 104 73 l 282 280 l 115 471 l 37 471 l 37 546 l 301 546 l 301 471 l 220 471 l 334 339 l 445 471 l 376 471 l 376 546 l 640 546 l 640 471 l 550 471 l 388 280 l 570 73 l 643 73 l 643 0 l 374 0 l 374 73 l 466 73 l 334 222 l 212 73 l 296 73 l 296 0 l 24 0 l 24 73 z "},"y":{"ha":666,"x_min":-1,"x_max":663,"o":"m 92 -73 l 168 -73 l 168 -127 q 208 -125 190 -127 q 241 -114 226 -123 q 270 -85 256 -104 q 298 -28 283 -65 l 328 47 l 263 47 l 84 471 l -1 471 l -1 546 l 275 546 l 275 471 l 201 471 l 338 110 l 352 110 l 410 293 l 461 471 l 383 471 l 383 546 l 663 546 l 663 471 l 576 471 l 429 24 q 389 -81 410 -36 q 339 -156 368 -126 q 271 -201 311 -186 q 176 -216 232 -216 q 136 -215 159 -216 q 92 -210 113 -213 l 92 -73 z "},"z":{"ha":565,"x_min":37,"x_max":513,"o":"m 511 0 l 37 0 l 37 79 l 393 471 l 146 471 l 146 364 l 64 364 l 64 546 l 513 546 l 513 463 l 153 73 l 425 73 l 425 187 l 511 187 l 511 0 z "},"{":{"ha":358,"x_min":20,"x_max":334,"o":"m 20 366 q 72 377 52 366 q 102 411 92 389 q 117 464 113 433 q 121 536 121 496 q 123 640 121 592 q 141 721 125 687 q 189 775 156 755 q 283 794 222 794 l 334 794 l 334 713 q 277 710 299 713 q 243 694 256 706 q 226 662 231 683 q 222 606 222 640 q 219 490 222 537 q 207 411 216 443 q 179 358 197 379 q 130 322 161 338 q 174 289 157 308 q 202 242 192 270 q 217 176 213 214 q 221 83 221 137 q 223 1 221 32 q 235 -45 224 -29 q 268 -65 245 -60 q 334 -70 291 -70 l 334 -151 l 284 -151 q 190 -133 223 -151 q 142 -81 157 -115 q 123 -1 126 -47 q 121 102 121 45 q 117 176 121 143 q 103 232 114 209 q 73 266 93 254 q 20 278 54 278 l 20 366 z "},"|":{"ha":274,"x_min":96,"x_max":178,"o":"m 178 782 l 178 -65 l 96 -65 l 96 782 l 178 782 z "},"}":{"ha":358,"x_min":20,"x_max":334,"o":"m 334 278 q 281 266 300 278 q 251 232 261 254 q 237 176 240 209 q 233 102 233 143 q 231 -1 233 45 q 212 -81 228 -47 q 164 -133 197 -115 q 70 -151 131 -151 l 20 -151 l 20 -70 q 85 -65 62 -70 q 119 -46 108 -61 q 131 -1 130 -31 q 133 78 133 28 q 137 173 133 134 q 151 241 141 213 q 179 289 161 270 q 224 322 197 308 q 175 358 193 338 q 147 411 157 379 q 135 490 138 443 q 132 606 132 537 q 128 662 132 640 q 111 694 123 683 q 77 710 98 706 q 20 713 55 713 l 20 794 l 71 794 q 164 775 132 794 q 213 722 197 756 q 231 642 228 688 q 233 539 233 595 q 237 466 233 498 q 251 412 241 434 q 281 377 262 389 q 334 366 301 366 l 334 278 z "},"~":{"ha":720,"x_min":52,"x_max":669,"o":"m 669 389 q 604 319 639 339 q 528 299 568 299 q 446 314 488 299 q 362 346 404 328 q 279 377 320 363 q 199 392 237 392 q 141 379 169 392 q 90 336 114 367 l 52 389 q 126 460 87 439 q 208 481 165 481 q 288 468 247 481 q 369 439 328 454 q 449 410 410 423 q 526 397 489 397 q 579 407 554 397 q 627 441 604 417 l 669 389 z "},"¡":{"ha":316,"x_min":86,"x_max":230,"o":"m 128 574 l 188 574 l 216 237 l 216 0 l 100 0 l 100 237 l 128 574 m 86 794 l 230 794 l 230 650 l 86 650 l 86 794 z "},"¢":{"ha":623,"x_min":39,"x_max":562,"o":"m 562 106 q 463 19 526 51 q 315 -13 401 -13 q 277 -11 295 -13 q 243 -5 260 -9 l 161 -250 l 106 -250 l 193 11 q 123 57 152 28 q 75 121 94 86 q 47 194 56 156 q 39 270 39 233 q 59 385 39 332 q 117 475 80 437 q 204 535 153 513 q 314 556 254 556 q 373 549 343 556 l 451 782 l 507 782 l 422 528 q 452 505 440 517 q 469 484 464 493 l 466 546 l 556 546 l 556 351 l 469 351 q 444 410 461 383 q 397 453 427 437 l 271 77 q 317 73 288 73 q 423 96 375 73 q 502 167 471 120 l 562 106 m 146 271 q 165 167 146 212 q 222 98 184 123 l 346 469 q 319 471 334 471 q 191 418 235 471 q 146 271 146 365 z "},"£":{"ha":673,"x_min":41,"x_max":633,"o":"m 87 431 l 210 431 q 188 474 198 450 q 171 520 178 497 q 160 566 164 544 q 156 603 156 587 q 172 684 156 648 q 215 744 187 720 q 282 781 243 768 q 368 794 321 794 q 459 780 419 794 q 526 738 499 765 q 567 671 553 710 q 581 585 581 633 l 490 585 q 484 636 490 612 q 464 676 477 659 q 428 704 450 694 q 372 713 406 713 q 286 687 319 713 q 253 609 253 661 q 258 571 253 592 q 271 526 263 549 q 290 478 279 503 q 311 431 300 454 l 480 431 l 480 372 l 335 372 q 346 317 342 344 q 349 263 349 290 q 345 202 349 233 q 334 146 341 172 q 371 123 353 134 q 406 103 389 112 q 440 89 423 94 q 475 84 458 84 q 545 113 522 84 q 570 197 567 142 l 633 197 q 622 107 633 146 q 589 41 610 68 q 539 1 568 15 q 475 -13 511 -13 q 430 -7 452 -13 q 387 9 408 -1 q 345 34 366 19 q 301 66 324 48 q 245 8 277 30 q 173 -13 214 -13 q 114 -3 138 -13 q 73 23 89 7 q 48 59 56 39 q 41 102 41 80 q 49 148 41 125 q 74 189 58 171 q 114 218 90 207 q 168 229 138 229 q 219 221 195 229 q 269 197 243 213 q 269 210 269 203 q 269 222 269 216 q 262 297 269 262 q 239 372 254 332 l 87 372 l 87 431 m 251 106 q 201 153 222 139 q 159 168 180 168 q 138 162 147 168 q 123 147 130 156 q 113 126 117 138 q 110 102 110 115 q 123 62 110 80 q 168 44 137 44 q 212 59 193 44 q 251 106 231 74 z "},"¤":{"ha":630,"x_min":83,"x_max":549,"o":"m 87 547 q 137 683 87 627 l 83 738 l 130 785 l 188 726 q 247 753 215 743 q 315 762 278 762 q 383 752 351 762 q 442 725 415 743 l 502 785 l 549 738 l 492 682 q 541 547 541 623 q 528 472 541 506 q 491 409 515 437 l 549 352 l 502 306 l 441 366 q 315 330 387 330 q 247 339 278 330 q 189 365 216 348 l 130 306 l 83 352 l 138 408 q 101 471 115 436 q 87 547 87 506 m 315 682 q 257 670 281 682 q 215 639 232 659 q 191 595 199 620 q 182 545 182 570 q 191 494 182 519 q 216 450 199 469 q 257 419 233 431 q 315 407 282 407 q 373 419 348 407 q 414 450 397 431 q 438 494 430 469 q 446 544 446 518 q 438 595 446 570 q 413 639 430 620 q 372 670 397 659 q 315 682 347 682 z "},"¥":{"ha":855,"x_min":-12,"x_max":777,"o":"m 330 281 l 330 341 l 169 341 l 169 422 l 284 422 l 87 696 l -12 696 l -12 782 l 308 782 l 308 696 l 206 696 l 392 439 l 566 696 l 465 696 l 465 782 l 777 782 l 777 696 l 671 696 l 481 422 l 600 422 l 600 341 l 438 341 l 438 281 l 600 281 l 600 201 l 438 201 l 438 85 l 549 85 l 549 0 l 222 0 l 222 85 l 330 85 l 330 201 l 169 201 l 169 281 l 330 281 z "},"¦":{"ha":274,"x_min":96,"x_max":178,"o":"m 178 782 l 178 498 l 96 498 l 96 782 l 178 782 m 178 235 l 178 -69 l 96 -69 l 96 235 l 178 235 z "},"§":{"ha":595,"x_min":60,"x_max":549,"o":"m 437 627 q 392 693 425 671 q 315 714 360 714 q 259 707 284 714 q 215 687 233 700 q 186 657 197 675 q 176 619 176 640 q 192 568 176 589 q 234 530 208 547 q 294 501 260 514 q 362 474 327 488 q 431 444 397 460 q 490 406 464 428 q 533 355 517 385 q 549 284 549 325 q 441 117 549 185 q 507 54 484 92 q 530 -31 530 16 q 514 -108 530 -73 q 470 -168 498 -143 q 402 -207 441 -193 q 315 -221 363 -221 q 192 -191 243 -221 q 109 -109 140 -160 l 178 -52 q 232 -115 197 -93 q 317 -138 267 -138 q 366 -130 345 -138 q 402 -110 387 -123 q 426 -78 418 -96 q 434 -39 434 -60 q 418 9 434 -11 q 376 46 402 30 q 316 75 349 62 q 247 101 282 87 q 178 131 212 115 q 118 169 144 147 q 76 221 92 191 q 60 292 60 251 q 85 380 60 340 q 168 457 111 419 q 103 522 125 483 q 80 610 80 561 q 97 682 80 648 q 144 740 114 715 q 215 780 174 765 q 305 794 256 794 q 376 786 342 794 q 439 762 410 779 q 489 719 468 745 q 522 657 511 693 l 437 627 m 380 149 q 444 201 422 172 q 465 263 465 230 q 443 319 465 298 q 388 357 422 340 q 311 389 354 374 q 224 425 268 404 q 163 373 182 399 q 144 315 144 347 q 164 258 144 280 q 218 220 184 237 q 293 188 251 203 q 380 149 336 172 z "},"¨":{"ha":388,"x_min":39,"x_max":355,"o":"m 355 747 l 355 643 l 252 643 l 252 747 l 355 747 m 144 747 l 144 643 l 39 643 l 39 747 l 144 747 z "},"©":{"ha":965,"x_min":39,"x_max":853,"o":"m 446 793 q 624 759 548 793 q 751 667 701 724 q 828 538 802 610 q 853 390 853 465 q 828 242 853 315 q 751 113 802 170 q 624 22 701 56 q 446 -13 548 -13 q 268 22 345 -13 q 141 113 192 56 q 65 242 90 170 q 39 390 39 315 q 65 538 39 465 q 141 667 90 610 q 268 759 192 724 q 446 793 345 793 m 446 730 q 302 700 363 730 q 200 623 241 671 q 138 514 159 575 q 118 390 118 453 q 138 266 118 327 q 200 156 159 204 q 302 79 241 109 q 446 50 363 50 q 590 79 528 50 q 692 156 651 109 q 753 266 733 204 q 774 390 774 327 q 753 514 774 453 q 692 623 733 575 q 590 700 651 671 q 446 730 528 730 m 622 274 q 550 211 596 233 q 443 188 505 188 q 351 207 389 188 q 290 255 313 226 q 255 321 266 285 q 243 392 243 357 q 258 475 243 437 q 300 541 273 513 q 363 584 327 568 q 443 599 400 599 q 485 593 466 599 q 518 580 504 588 q 542 563 532 572 q 554 547 551 554 l 553 591 l 618 591 l 618 450 l 554 450 q 542 484 550 468 q 522 512 534 500 q 490 530 509 524 q 446 537 471 537 q 353 499 385 537 q 321 393 321 461 q 330 334 321 361 q 353 289 338 308 q 392 260 369 271 q 445 250 415 250 q 522 267 488 250 q 578 318 557 283 l 622 274 z "},"ª":{"ha":472,"x_min":24,"x_max":449,"o":"m 49 737 q 210 794 106 794 q 290 783 258 794 q 341 752 322 771 q 368 709 360 734 q 376 659 376 685 l 376 434 l 449 434 l 449 376 l 308 376 l 307 418 q 269 394 287 404 q 234 378 251 385 q 200 370 217 372 q 163 367 182 367 q 105 377 131 367 q 61 403 79 387 q 34 441 43 420 q 24 486 24 463 q 38 550 24 525 q 76 589 52 574 q 133 610 100 604 q 201 616 165 616 q 300 606 249 616 l 300 655 q 292 691 300 676 q 272 716 285 707 q 242 729 259 725 q 205 734 224 734 q 141 722 170 734 q 96 688 113 711 l 49 737 m 300 556 q 259 560 283 556 q 207 564 235 564 q 167 562 186 564 q 132 550 147 559 q 106 527 116 542 q 96 486 96 511 q 116 441 96 460 q 174 422 136 422 q 242 434 209 422 q 300 467 276 446 l 300 556 z "},"«":{"ha":613,"x_min":42,"x_max":568,"o":"m 568 0 l 472 0 l 292 283 l 472 568 l 568 568 l 394 283 l 568 0 m 317 0 l 220 0 l 42 283 l 220 568 l 317 568 l 142 283 l 317 0 z "},"¬":{"ha":755,"x_min":38,"x_max":673,"o":"m 673 571 l 673 206 l 594 206 l 594 491 l 38 491 l 38 571 l 673 571 z "},"­":{"ha":1158,"x_min":0,"x_max":0,"o":""},"®":{"ha":907,"x_min":46,"x_max":860,"o":"m 453 793 q 631 759 555 793 q 758 667 707 724 q 834 538 809 610 q 860 390 860 465 q 834 242 860 315 q 758 113 809 170 q 631 22 707 56 q 453 -13 555 -13 q 275 22 351 -13 q 148 113 199 56 q 72 242 97 170 q 46 390 46 315 q 72 538 46 465 q 148 667 97 610 q 275 759 199 724 q 453 793 351 793 m 453 730 q 309 700 370 730 q 207 623 248 671 q 145 514 165 575 q 125 390 125 453 q 145 266 125 327 q 207 156 165 204 q 309 79 248 109 q 453 50 370 50 q 596 79 535 50 q 699 156 658 109 q 760 266 740 204 q 781 390 781 327 q 760 514 781 453 q 699 623 740 575 q 596 700 658 671 q 453 730 535 730 m 267 229 l 326 229 l 326 560 l 267 560 l 267 607 l 469 607 q 575 577 542 607 q 609 497 609 547 q 585 426 609 454 q 514 388 562 397 l 600 229 l 654 229 l 654 182 l 561 182 l 456 380 l 385 380 l 385 229 l 443 229 l 443 182 l 267 182 l 267 229 m 467 428 q 507 434 491 428 q 532 450 523 440 q 545 472 541 460 q 549 497 549 484 q 526 545 549 530 q 465 560 503 560 l 385 560 l 385 428 l 467 428 z "},"°":{"ha":443,"x_min":46,"x_max":397,"o":"m 222 766 q 175 757 196 766 q 138 732 153 748 q 114 695 123 716 q 105 650 105 674 q 114 605 105 626 q 138 568 123 583 q 175 543 153 552 q 222 534 196 534 q 267 543 245 534 q 303 567 288 551 q 329 603 319 582 q 338 650 338 625 q 330 692 338 671 q 307 730 322 713 q 271 756 292 746 q 222 766 249 766 m 222 825 q 290 811 258 825 q 346 773 322 798 q 383 718 370 749 q 397 649 397 686 q 383 581 397 612 q 346 525 370 549 q 290 487 322 501 q 222 473 258 473 q 153 487 185 473 q 98 525 121 501 q 60 581 74 549 q 46 649 46 612 q 60 718 46 686 q 98 773 74 749 q 153 811 121 798 q 222 825 185 825 z "},"±":{"ha":759,"x_min":62,"x_max":697,"o":"m 697 54 l 697 -26 l 62 -26 l 62 54 l 697 54 m 697 526 l 697 445 l 418 445 l 418 168 l 340 168 l 340 445 l 62 445 l 62 526 l 340 526 l 340 802 l 418 802 l 418 526 l 697 526 z "},"²":{"ha":507,"x_min":58,"x_max":446,"o":"m 379 393 l 443 393 l 443 203 l 59 203 q 58 216 58 210 q 58 229 58 222 q 80 327 58 285 q 136 402 102 369 q 210 463 170 435 q 283 516 249 490 q 339 571 317 543 q 361 634 361 599 q 335 701 361 677 q 254 725 309 725 q 204 717 224 725 q 170 691 183 709 q 152 645 157 673 q 146 578 146 617 l 74 578 q 119 741 74 689 q 254 793 164 793 q 345 779 309 793 q 404 741 382 764 q 436 690 427 718 q 446 636 446 663 q 425 557 446 591 q 374 494 405 523 q 305 441 342 466 q 234 391 268 417 q 174 337 200 366 q 141 271 149 308 l 379 271 l 379 393 z "},"³":{"ha":531,"x_min":62,"x_max":476,"o":"m 136 378 q 174 291 142 322 q 260 260 205 260 q 319 268 294 260 q 361 289 344 275 q 386 321 378 302 q 395 361 395 340 q 380 415 395 394 q 340 448 366 436 q 281 465 315 460 q 209 470 248 470 l 209 537 l 253 537 q 345 559 315 537 q 375 630 375 581 q 368 668 375 650 q 346 697 360 685 q 308 718 331 710 q 255 725 286 725 q 179 697 204 725 q 151 625 154 669 l 76 638 q 91 702 77 673 q 127 751 104 731 q 182 783 150 772 q 253 794 214 794 q 336 784 299 794 q 399 753 373 773 q 439 704 425 733 q 453 638 453 675 q 448 596 453 616 q 432 558 444 576 q 401 528 420 541 q 354 506 382 514 q 445 457 414 495 q 476 366 476 418 q 461 295 476 327 q 418 240 446 263 q 349 204 390 217 q 255 192 308 192 q 178 203 213 192 q 117 237 142 214 q 76 295 91 260 q 62 376 62 329 l 136 378 z "},"´":{"ha":381,"x_min":112,"x_max":319,"o":"m 112 620 l 179 794 l 319 794 l 193 620 l 112 620 z "},"µ":{"ha":627,"x_min":22,"x_max":658,"o":"m 460 0 l 456 68 q 367 7 412 27 q 272 -12 323 -12 q 191 3 222 -12 l 191 -250 l 103 -250 l 103 467 l 22 467 l 22 546 l 206 546 l 206 182 q 225 101 206 129 q 291 73 244 73 q 381 100 338 73 q 456 170 424 127 l 456 467 l 358 467 l 358 546 l 559 546 l 559 77 l 658 77 l 658 0 l 460 0 z "},"¶":{"ha":743,"x_min":34,"x_max":692,"o":"m 692 716 l 598 716 l 598 -253 l 507 -253 l 507 716 l 370 716 l 370 -253 l 279 -253 l 279 324 q 175 346 220 326 q 98 397 130 365 q 50 473 66 429 q 34 567 34 516 q 51 662 34 617 q 102 739 68 706 q 186 792 136 772 q 306 811 237 811 l 692 811 l 692 716 z "},"¸":{"ha":398,"x_min":87,"x_max":300,"o":"m 87 -178 q 117 -182 102 -181 q 145 -184 132 -184 q 192 -176 174 -184 q 210 -148 210 -168 q 192 -121 210 -131 q 143 -109 174 -111 l 182 3 l 231 3 l 213 -81 q 277 -102 254 -85 q 300 -148 300 -119 q 292 -183 300 -165 q 268 -215 285 -201 q 223 -237 251 -229 q 155 -246 195 -246 q 122 -245 139 -246 q 87 -241 106 -244 l 87 -178 z "},"¹":{"ha":323,"x_min":39,"x_max":279,"o":"m 43 266 l 126 266 l 126 718 l 39 718 l 39 782 l 201 782 l 201 266 l 279 266 l 279 203 l 43 203 l 43 266 z "},"º":{"ha":477,"x_min":46,"x_max":432,"o":"m 122 645 q 131 600 122 621 q 156 563 140 578 q 193 539 172 548 q 239 530 214 530 q 285 539 264 530 q 322 563 307 548 q 347 600 338 578 q 355 645 355 621 q 347 690 355 669 q 322 726 338 711 q 285 750 307 741 q 239 758 264 758 q 193 750 214 758 q 156 726 172 741 q 131 690 140 711 q 122 645 122 669 m 46 645 q 61 716 46 684 q 101 773 75 749 q 163 810 127 797 q 239 824 198 824 q 316 810 281 824 q 377 773 351 797 q 417 716 403 749 q 432 645 432 684 q 417 574 432 606 q 377 517 403 541 q 316 479 351 493 q 239 466 281 466 q 163 479 198 466 q 101 517 127 493 q 61 574 75 541 q 46 645 46 606 z "},"»":{"ha":614,"x_min":45,"x_max":572,"o":"m 296 568 l 393 568 l 572 283 l 393 0 l 296 0 l 471 283 l 296 568 m 45 568 l 142 568 l 321 283 l 142 0 l 45 0 l 219 283 l 45 568 z "},"¼":{"ha":1129,"x_min":42,"x_max":1050,"o":"m 621 793 l 681 793 l 400 0 l 339 0 l 621 793 m 46 266 l 130 266 l 130 718 l 42 718 l 42 782 l 205 782 l 205 266 l 282 266 l 282 203 l 46 203 l 46 266 m 779 68 l 869 68 l 869 172 l 617 172 l 617 239 l 871 631 l 947 631 l 947 239 l 1050 239 l 1050 172 l 947 172 l 947 68 l 1028 68 l 1028 0 l 779 0 l 779 68 m 869 519 l 696 239 l 869 239 l 869 519 z "},"½":{"ha":1146,"x_min":39,"x_max":1078,"o":"m 621 793 l 681 793 l 400 0 l 339 0 l 621 793 m 43 266 l 126 266 l 126 718 l 39 718 l 39 782 l 201 782 l 201 266 l 279 266 l 279 203 l 43 203 l 43 266 m 1012 180 l 1076 180 l 1076 -11 l 692 -11 q 691 2 691 -4 q 690 16 690 9 q 713 113 690 71 q 769 189 735 155 q 842 249 803 222 q 916 302 882 276 q 972 357 949 329 q 994 420 994 385 q 968 487 994 463 q 887 511 942 511 q 837 503 857 511 q 803 477 816 495 q 785 431 790 459 q 779 365 779 404 l 707 365 q 752 528 707 475 q 886 580 797 580 q 978 565 941 580 q 1037 528 1015 551 q 1069 477 1059 505 q 1078 422 1078 449 q 1058 343 1078 378 q 1006 281 1038 309 q 938 228 975 252 q 867 178 901 203 q 807 123 833 152 q 774 58 781 94 l 1012 58 l 1012 180 z "},"¾":{"ha":1313,"x_min":65,"x_max":1223,"o":"m 777 793 l 838 793 l 557 0 l 496 0 l 777 793 m 140 378 q 177 291 145 322 q 264 260 209 260 q 322 268 297 260 q 364 289 347 275 q 390 321 381 302 q 398 361 398 340 q 384 415 398 394 q 344 448 369 436 q 285 465 319 460 q 212 470 251 470 l 212 537 l 256 537 q 348 559 318 537 q 378 630 378 581 q 371 668 378 650 q 349 697 363 685 q 312 718 334 710 q 258 725 289 725 q 182 697 208 725 q 155 625 157 669 l 79 638 q 94 702 81 673 q 130 751 107 731 q 185 783 153 772 q 256 794 217 794 q 339 784 302 794 q 402 753 376 773 q 443 704 429 733 q 456 638 456 675 q 452 596 456 616 q 435 558 447 576 q 405 528 424 541 q 357 506 386 514 q 448 457 417 495 q 479 366 479 418 q 465 295 479 327 q 421 240 450 263 q 352 204 393 217 q 258 192 311 192 q 181 203 216 192 q 120 237 146 214 q 80 295 94 260 q 65 376 65 329 l 140 378 m 952 68 l 1042 68 l 1042 172 l 790 172 l 790 239 l 1044 631 l 1120 631 l 1120 239 l 1223 239 l 1223 172 l 1120 172 l 1120 68 l 1201 68 l 1201 0 l 952 0 l 952 68 m 1042 519 l 869 239 l 1042 239 l 1042 519 z "},"¿":{"ha":540,"x_min":39,"x_max":504,"o":"m 324 592 q 324 582 324 587 q 324 571 324 576 q 316 473 324 513 q 295 406 308 433 q 265 360 281 378 q 230 329 248 343 q 195 305 212 316 q 165 279 178 294 q 143 244 151 265 q 135 193 135 224 q 146 142 135 165 q 174 103 156 119 q 216 78 192 87 q 268 69 241 69 q 374 109 336 69 q 412 225 412 149 l 412 231 q 411 235 412 235 l 502 235 q 503 228 503 231 q 503 220 503 224 q 483 112 503 157 q 429 40 462 68 q 354 0 396 12 q 269 -13 312 -13 q 179 2 221 -13 q 106 43 137 16 q 57 108 75 70 q 39 193 39 146 q 49 262 39 234 q 73 309 58 290 q 107 343 88 329 q 147 372 127 357 q 188 403 168 387 q 225 445 208 420 q 252 505 241 470 q 266 592 263 541 l 324 592 m 233 811 l 350 811 l 350 678 l 233 678 l 233 811 z "},"À":{"ha":811,"x_min":-9,"x_max":819,"o":"m 595 782 l 595 702 l 527 702 q 601 481 574 564 q 636 374 627 399 q 685 221 662 296 q 726 79 708 146 l 819 79 l 819 0 l 512 0 l 512 79 l 614 79 l 556 288 l 254 288 l 197 79 l 298 79 l 298 0 l -9 0 l -9 79 l 85 79 q 129 231 104 152 q 179 390 153 309 q 232 549 205 470 q 283 702 258 628 l 216 702 l 216 782 l 595 782 m 536 370 q 498 496 522 414 q 431 702 474 578 l 380 702 q 312 496 337 578 q 275 370 288 414 l 536 370 m 429 856 l 302 1030 l 442 1030 l 509 856 l 429 856 z "},"Á":{"ha":811,"x_min":-9,"x_max":819,"o":"m 595 782 l 595 702 l 527 702 q 601 481 574 564 q 636 374 627 399 q 685 221 662 296 q 726 79 708 146 l 819 79 l 819 0 l 512 0 l 512 79 l 614 79 l 556 288 l 254 288 l 197 79 l 298 79 l 298 0 l -9 0 l -9 79 l 85 79 q 129 231 104 152 q 179 390 153 309 q 232 549 205 470 q 283 702 258 628 l 216 702 l 216 782 l 595 782 m 536 370 q 498 496 522 414 q 431 702 474 578 l 380 702 q 312 496 337 578 q 275 370 288 414 l 536 370 m 302 856 l 369 1030 l 509 1030 l 382 856 l 302 856 z "},"Â":{"ha":811,"x_min":-9,"x_max":819,"o":"m 595 782 l 595 702 l 527 702 q 601 481 574 564 q 636 374 627 399 q 685 221 662 296 q 726 79 708 146 l 819 79 l 819 0 l 512 0 l 512 79 l 614 79 l 556 288 l 254 288 l 197 79 l 298 79 l 298 0 l -9 0 l -9 79 l 85 79 q 129 231 104 152 q 179 390 153 309 q 232 549 205 470 q 283 702 258 628 l 216 702 l 216 782 l 595 782 m 536 370 q 498 496 522 414 q 431 702 474 578 l 380 702 q 312 496 337 578 q 275 370 288 414 l 536 370 m 243 844 l 310 1030 l 496 1030 l 567 844 l 467 844 l 404 1000 l 340 844 l 243 844 z "},"Ã":{"ha":811,"x_min":-9,"x_max":819,"o":"m 595 782 l 595 702 l 527 702 q 601 481 574 564 q 636 374 627 399 q 685 221 662 296 q 726 79 708 146 l 819 79 l 819 0 l 512 0 l 512 79 l 614 79 l 556 288 l 254 288 l 197 79 l 298 79 l 298 0 l -9 0 l -9 79 l 85 79 q 129 231 104 152 q 179 390 153 309 q 232 549 205 470 q 283 702 258 628 l 216 702 l 216 782 l 595 782 m 536 370 q 498 496 522 414 q 431 702 474 578 l 380 702 q 312 496 337 578 q 275 370 288 414 l 536 370 m 199 901 q 213 965 202 938 q 240 1009 224 991 q 276 1034 256 1026 q 318 1042 296 1042 q 369 1035 344 1042 q 419 1019 395 1027 q 465 1002 443 1010 q 507 995 487 995 q 559 1039 549 995 l 612 1039 q 575 933 606 971 q 490 895 544 895 q 436 902 462 895 q 386 919 410 909 q 340 935 362 928 q 299 943 319 943 q 267 932 277 943 q 253 901 257 921 l 199 901 z "},"Ä":{"ha":811,"x_min":-9,"x_max":819,"o":"m 595 782 l 595 702 l 527 702 q 601 481 574 564 q 636 374 627 399 q 685 221 662 296 q 726 79 708 146 l 819 79 l 819 0 l 512 0 l 512 79 l 614 79 l 556 288 l 254 288 l 197 79 l 298 79 l 298 0 l -9 0 l -9 79 l 85 79 q 129 231 104 152 q 179 390 153 309 q 232 549 205 470 q 283 702 258 628 l 216 702 l 216 782 l 595 782 m 536 370 q 498 496 522 414 q 431 702 474 578 l 380 702 q 312 496 337 578 q 275 370 288 414 l 536 370 m 563 983 l 563 879 l 460 879 l 460 983 l 563 983 m 352 983 l 352 879 l 248 879 l 248 983 l 352 983 z "},"Å":{"ha":811,"x_min":-9,"x_max":819,"o":"m 595 782 l 595 702 l 527 702 q 601 481 574 564 q 636 374 627 399 q 685 221 662 296 q 726 79 708 146 l 819 79 l 819 0 l 512 0 l 512 79 l 614 79 l 556 288 l 254 288 l 197 79 l 298 79 l 298 0 l -9 0 l -9 79 l 85 79 q 129 231 104 152 q 179 390 153 309 q 232 549 205 470 q 283 702 258 628 l 216 702 l 216 782 l 595 782 m 536 370 q 498 496 522 414 q 431 702 474 578 l 380 702 q 312 496 337 578 q 275 370 288 414 l 536 370 m 405 1050 q 450 1042 429 1050 q 486 1020 471 1034 q 511 985 502 1005 q 519 943 519 966 q 511 900 519 920 q 486 865 502 880 q 450 842 471 850 q 405 833 429 833 q 360 842 381 833 q 324 865 339 850 q 300 900 309 880 q 291 943 291 920 q 300 985 291 966 q 324 1020 309 1005 q 360 1042 339 1034 q 405 1050 381 1050 m 405 1009 q 377 1004 390 1009 q 354 990 364 999 q 339 969 345 981 q 334 943 334 957 q 339 916 334 928 q 354 895 345 904 q 377 881 364 886 q 405 876 390 876 q 433 881 420 876 q 455 895 446 886 q 470 916 465 904 q 475 943 475 928 q 470 969 475 957 q 455 990 465 981 q 433 1004 446 999 q 405 1009 420 1009 z "},"Æ":{"ha":1175,"x_min":-16,"x_max":1177,"o":"m 1060 564 l 970 564 l 940 696 l 590 696 l 650 444 l 895 444 l 879 522 l 945 522 l 1002 278 l 936 278 l 909 372 l 666 372 l 736 85 l 1069 85 l 1036 222 l 1124 222 l 1177 0 l 505 0 l 513 85 l 627 85 l 579 288 l 267 288 l 197 85 l 299 85 l 292 0 l -16 0 l -8 85 l 85 85 l 336 702 l 267 702 l 278 782 l 1008 782 l 1060 564 m 559 370 l 481 696 l 430 696 l 300 370 l 559 370 z "},"Ç":{"ha":847,"x_min":47,"x_max":806,"o":"m 436 -13 q 274 17 347 -13 q 152 99 202 46 q 74 226 101 152 q 47 390 47 300 q 74 554 47 479 q 153 682 101 629 q 281 765 205 735 q 454 794 357 794 q 593 766 532 794 q 696 693 654 738 l 696 782 l 785 782 l 785 545 l 700 545 q 593 663 661 625 q 439 702 525 702 q 325 679 375 702 q 239 614 274 655 q 185 516 204 572 q 167 393 167 459 q 182 271 167 328 q 231 171 197 214 q 316 104 264 128 q 444 79 369 79 q 528 88 486 79 q 605 118 569 97 q 669 173 641 139 q 714 256 697 206 l 806 208 q 736 98 778 141 q 644 31 694 56 q 541 -3 594 6 q 436 -13 487 -13 m 317 -178 q 347 -182 332 -181 q 375 -184 361 -184 q 421 -176 404 -184 q 439 -148 439 -168 q 421 -121 439 -131 q 373 -109 404 -111 l 412 3 l 461 3 l 443 -81 q 507 -102 484 -85 q 530 -148 530 -119 q 522 -183 530 -165 q 498 -215 515 -201 q 453 -237 481 -229 q 385 -246 425 -246 q 352 -245 369 -246 q 317 -241 336 -244 l 317 -178 z "},"È":{"ha":759,"x_min":41,"x_max":699,"o":"m 41 79 l 146 79 l 146 702 l 41 702 l 41 782 l 699 782 l 699 564 l 610 564 l 610 702 l 254 702 l 254 444 l 500 444 l 500 522 l 568 522 l 568 278 l 499 278 l 499 357 l 256 357 l 256 79 l 612 79 l 612 222 l 699 222 l 699 0 l 41 0 l 41 79 m 402 856 l 275 1030 l 416 1030 l 483 856 l 402 856 z "},"É":{"ha":759,"x_min":41,"x_max":699,"o":"m 41 79 l 146 79 l 146 702 l 41 702 l 41 782 l 699 782 l 699 564 l 610 564 l 610 702 l 254 702 l 254 444 l 500 444 l 500 522 l 568 522 l 568 278 l 499 278 l 499 357 l 256 357 l 256 79 l 612 79 l 612 222 l 699 222 l 699 0 l 41 0 l 41 79 m 275 856 l 342 1030 l 483 1030 l 356 856 l 275 856 z "},"Ê":{"ha":759,"x_min":41,"x_max":699,"o":"m 41 79 l 146 79 l 146 702 l 41 702 l 41 782 l 699 782 l 699 564 l 610 564 l 610 702 l 254 702 l 254 444 l 500 444 l 500 522 l 568 522 l 568 278 l 499 278 l 499 357 l 256 357 l 256 79 l 612 79 l 612 222 l 699 222 l 699 0 l 41 0 l 41 79 m 218 844 l 284 1030 l 471 1030 l 541 844 l 441 844 l 378 1000 l 315 844 l 218 844 z "},"Ë":{"ha":759,"x_min":41,"x_max":699,"o":"m 41 79 l 146 79 l 146 702 l 41 702 l 41 782 l 699 782 l 699 564 l 610 564 l 610 702 l 254 702 l 254 444 l 500 444 l 500 522 l 568 522 l 568 278 l 499 278 l 499 357 l 256 357 l 256 79 l 612 79 l 612 222 l 699 222 l 699 0 l 41 0 l 41 79 m 537 983 l 537 879 l 434 879 l 434 983 l 537 983 m 326 983 l 326 879 l 222 879 l 222 983 l 326 983 z "},"Ì":{"ha":394,"x_min":51,"x_max":341,"o":"m 51 79 l 142 79 l 142 702 l 51 702 l 51 782 l 341 782 l 341 702 l 252 702 l 252 79 l 341 79 l 341 0 l 51 0 l 51 79 m 220 856 l 93 1030 l 233 1030 l 300 856 l 220 856 z "},"Í":{"ha":394,"x_min":51,"x_max":341,"o":"m 51 79 l 142 79 l 142 702 l 51 702 l 51 782 l 341 782 l 341 702 l 252 702 l 252 79 l 341 79 l 341 0 l 51 0 l 51 79 m 94 856 l 161 1030 l 302 1030 l 175 856 l 94 856 z "},"Î":{"ha":394,"x_min":36,"x_max":359,"o":"m 51 79 l 142 79 l 142 702 l 51 702 l 51 782 l 341 782 l 341 702 l 252 702 l 252 79 l 341 79 l 341 0 l 51 0 l 51 79 m 36 844 l 102 1030 l 289 1030 l 359 844 l 259 844 l 196 1000 l 133 844 l 36 844 z "},"Ï":{"ha":394,"x_min":39,"x_max":355,"o":"m 51 79 l 142 79 l 142 702 l 51 702 l 51 782 l 341 782 l 341 702 l 252 702 l 252 79 l 341 79 l 341 0 l 51 0 l 51 79 m 355 983 l 355 879 l 252 879 l 252 983 l 355 983 m 144 983 l 144 879 l 39 879 l 39 983 l 144 983 z "},"Ð":{"ha":863,"x_min":40,"x_max":813,"o":"m 40 85 l 148 85 l 148 343 l 41 343 l 41 441 l 148 441 l 148 696 l 40 696 l 40 782 l 416 782 q 553 766 493 782 q 656 723 612 751 q 731 659 701 696 q 779 579 761 622 q 805 490 798 536 q 813 398 813 444 q 790 235 813 308 q 719 109 768 161 q 593 28 670 57 q 406 0 515 0 l 40 0 l 40 85 m 258 441 l 392 441 l 392 343 l 258 343 l 258 85 l 410 85 q 552 110 496 85 q 641 177 608 134 q 688 275 674 219 q 701 394 701 331 q 686 514 701 458 q 636 609 671 569 q 547 673 602 650 q 413 696 492 696 l 258 696 l 258 441 z "},"Ñ":{"ha":897,"x_min":38,"x_max":877,"o":"m 38 79 l 153 79 l 153 702 l 38 702 l 38 782 l 297 782 l 669 143 l 669 702 l 557 702 l 557 782 l 877 782 l 877 702 l 760 702 l 760 0 l 635 0 l 243 676 l 243 79 l 358 79 l 358 0 l 38 0 l 38 79 m 241 901 q 256 965 245 938 q 282 1009 267 991 q 318 1034 298 1026 q 361 1042 338 1042 q 412 1035 387 1042 q 461 1019 437 1027 q 508 1002 486 1010 q 549 995 530 995 q 602 1039 591 995 l 654 1039 q 618 933 649 971 q 533 895 587 895 q 478 902 505 895 q 429 919 452 909 q 383 935 405 928 q 342 943 361 943 q 310 932 320 943 q 296 901 300 921 l 241 901 z "},"Ò":{"ha":896,"x_min":45,"x_max":852,"o":"m 45 390 q 73 549 45 475 q 152 677 100 623 q 279 763 204 732 q 448 794 354 794 q 617 763 542 794 q 744 676 692 731 q 824 548 796 622 q 852 390 852 474 q 824 232 852 306 q 744 104 796 159 q 617 19 692 50 q 448 -13 542 -13 q 279 18 353 -13 q 152 104 204 50 q 73 232 100 159 q 45 390 45 305 m 165 390 q 185 269 165 326 q 242 171 205 213 q 331 104 279 128 q 448 79 383 79 q 565 104 512 79 q 654 171 617 128 q 711 269 691 213 q 731 390 731 326 q 711 512 731 455 q 654 611 691 569 q 565 678 617 654 q 448 702 512 702 q 331 678 383 702 q 242 611 279 654 q 185 512 205 569 q 165 390 165 455 m 471 856 l 344 1030 l 484 1030 l 551 856 l 471 856 z "},"Ó":{"ha":896,"x_min":45,"x_max":852,"o":"m 45 390 q 73 549 45 475 q 152 677 100 623 q 279 763 204 732 q 448 794 354 794 q 617 763 542 794 q 744 676 692 731 q 824 548 796 622 q 852 390 852 474 q 824 232 852 306 q 744 104 796 159 q 617 19 692 50 q 448 -13 542 -13 q 279 18 353 -13 q 152 104 204 50 q 73 232 100 159 q 45 390 45 305 m 165 390 q 185 269 165 326 q 242 171 205 213 q 331 104 279 128 q 448 79 383 79 q 565 104 512 79 q 654 171 617 128 q 711 269 691 213 q 731 390 731 326 q 711 512 731 455 q 654 611 691 569 q 565 678 617 654 q 448 702 512 702 q 331 678 383 702 q 242 611 279 654 q 185 512 205 569 q 165 390 165 455 m 344 856 l 411 1030 l 551 1030 l 425 856 l 344 856 z "},"Ô":{"ha":896,"x_min":45,"x_max":852,"o":"m 45 390 q 73 549 45 475 q 152 677 100 623 q 279 763 204 732 q 448 794 354 794 q 617 763 542 794 q 744 676 692 731 q 824 548 796 622 q 852 390 852 474 q 824 232 852 306 q 744 104 796 159 q 617 19 692 50 q 448 -13 542 -13 q 279 18 353 -13 q 152 104 204 50 q 73 232 100 159 q 45 390 45 305 m 165 390 q 185 269 165 326 q 242 171 205 213 q 331 104 279 128 q 448 79 383 79 q 565 104 512 79 q 654 171 617 128 q 711 269 691 213 q 731 390 731 326 q 711 512 731 455 q 654 611 691 569 q 565 678 617 654 q 448 702 512 702 q 331 678 383 702 q 242 611 279 654 q 185 512 205 569 q 165 390 165 455 m 286 844 l 353 1030 l 539 1030 l 610 844 l 509 844 l 446 1000 l 383 844 l 286 844 z "},"Õ":{"ha":896,"x_min":45,"x_max":852,"o":"m 45 390 q 73 549 45 475 q 152 677 100 623 q 279 763 204 732 q 448 794 354 794 q 617 763 542 794 q 744 676 692 731 q 824 548 796 622 q 852 390 852 474 q 824 232 852 306 q 744 104 796 159 q 617 19 692 50 q 448 -13 542 -13 q 279 18 353 -13 q 152 104 204 50 q 73 232 100 159 q 45 390 45 305 m 165 390 q 185 269 165 326 q 242 171 205 213 q 331 104 279 128 q 448 79 383 79 q 565 104 512 79 q 654 171 617 128 q 711 269 691 213 q 731 390 731 326 q 711 512 731 455 q 654 611 691 569 q 565 678 617 654 q 448 702 512 702 q 331 678 383 702 q 242 611 279 654 q 185 512 205 569 q 165 390 165 455 m 241 901 q 256 965 245 938 q 282 1009 267 991 q 318 1034 298 1026 q 361 1042 338 1042 q 412 1035 387 1042 q 461 1019 437 1027 q 508 1002 486 1010 q 549 995 530 995 q 602 1039 591 995 l 654 1039 q 618 933 649 971 q 533 895 587 895 q 478 902 505 895 q 429 919 452 909 q 383 935 405 928 q 342 943 361 943 q 310 932 320 943 q 296 901 300 921 l 241 901 z "},"Ö":{"ha":896,"x_min":45,"x_max":852,"o":"m 45 390 q 73 549 45 475 q 152 677 100 623 q 279 763 204 732 q 448 794 354 794 q 617 763 542 794 q 744 676 692 731 q 824 548 796 622 q 852 390 852 474 q 824 232 852 306 q 744 104 796 159 q 617 19 692 50 q 448 -13 542 -13 q 279 18 353 -13 q 152 104 204 50 q 73 232 100 159 q 45 390 45 305 m 165 390 q 185 269 165 326 q 242 171 205 213 q 331 104 279 128 q 448 79 383 79 q 565 104 512 79 q 654 171 617 128 q 711 269 691 213 q 731 390 731 326 q 711 512 731 455 q 654 611 691 569 q 565 678 617 654 q 448 702 512 702 q 331 678 383 702 q 242 611 279 654 q 185 512 205 569 q 165 390 165 455 m 606 983 l 606 879 l 503 879 l 503 983 l 606 983 m 395 983 l 395 879 l 290 879 l 290 983 l 395 983 z "},"×":{"ha":630,"x_min":122,"x_max":520,"o":"m 264 294 l 122 437 l 178 493 l 321 351 l 464 493 l 520 437 l 377 294 l 520 153 l 463 97 l 321 239 l 179 97 l 122 153 l 264 294 z "},"Ø":{"ha":895,"x_min":44,"x_max":851,"o":"m 44 390 q 72 549 44 475 q 152 677 100 623 q 278 763 203 732 q 447 794 353 794 q 606 766 532 794 l 642 838 l 706 808 l 669 735 q 746 672 712 709 q 803 592 780 636 q 839 496 827 547 q 851 390 851 445 q 823 232 851 306 q 743 104 795 159 q 616 19 691 50 q 447 -13 541 -13 q 301 10 363 -13 l 264 -62 l 200 -33 l 236 39 q 154 100 190 64 q 94 182 119 137 q 57 280 70 228 q 44 390 44 333 m 164 390 q 195 241 164 308 q 283 132 226 174 l 562 680 q 447 703 513 703 q 331 678 382 703 q 241 612 279 654 q 184 512 204 570 q 164 390 164 455 m 730 390 q 702 534 730 468 q 622 642 673 600 l 345 98 q 447 80 395 80 q 564 104 511 80 q 653 171 616 129 q 710 269 690 213 q 730 390 730 326 z "},"Ù":{"ha":821,"x_min":23,"x_max":798,"o":"m 23 702 l 23 782 l 330 782 l 330 702 l 233 702 l 233 256 q 242 180 233 213 q 272 125 252 147 q 327 91 293 102 q 408 79 360 79 q 495 92 460 79 q 550 127 530 104 q 580 185 571 151 q 589 264 589 220 l 589 702 l 492 702 l 492 782 l 798 782 l 798 702 l 697 702 q 697 546 697 621 q 698 411 698 471 q 698 311 698 351 q 699 258 699 270 q 676 133 699 184 q 614 50 653 82 q 525 2 576 17 q 416 -12 473 -12 q 269 11 326 -12 q 179 72 212 34 q 135 158 147 109 q 123 259 123 207 q 123 284 123 263 q 124 337 123 305 q 124 407 124 368 q 124 486 124 446 q 125 564 125 526 q 125 629 125 601 l 125 702 l 23 702 m 433 856 l 307 1030 l 447 1030 l 514 856 l 433 856 z "},"Ú":{"ha":821,"x_min":23,"x_max":798,"o":"m 23 702 l 23 782 l 330 782 l 330 702 l 233 702 l 233 256 q 242 180 233 213 q 272 125 252 147 q 327 91 293 102 q 408 79 360 79 q 495 92 460 79 q 550 127 530 104 q 580 185 571 151 q 589 264 589 220 l 589 702 l 492 702 l 492 782 l 798 782 l 798 702 l 697 702 q 697 546 697 621 q 698 411 698 471 q 698 311 698 351 q 699 258 699 270 q 676 133 699 184 q 614 50 653 82 q 525 2 576 17 q 416 -12 473 -12 q 269 11 326 -12 q 179 72 212 34 q 135 158 147 109 q 123 259 123 207 q 123 284 123 263 q 124 337 123 305 q 124 407 124 368 q 124 486 124 446 q 125 564 125 526 q 125 629 125 601 l 125 702 l 23 702 m 307 856 l 374 1030 l 514 1030 l 387 856 l 307 856 z "},"Û":{"ha":821,"x_min":23,"x_max":798,"o":"m 23 702 l 23 782 l 330 782 l 330 702 l 233 702 l 233 256 q 242 180 233 213 q 272 125 252 147 q 327 91 293 102 q 408 79 360 79 q 495 92 460 79 q 550 127 530 104 q 580 185 571 151 q 589 264 589 220 l 589 702 l 492 702 l 492 782 l 798 782 l 798 702 l 697 702 q 697 546 697 621 q 698 411 698 471 q 698 311 698 351 q 699 258 699 270 q 676 133 699 184 q 614 50 653 82 q 525 2 576 17 q 416 -12 473 -12 q 269 11 326 -12 q 179 72 212 34 q 135 158 147 109 q 123 259 123 207 q 123 284 123 263 q 124 337 123 305 q 124 407 124 368 q 124 486 124 446 q 125 564 125 526 q 125 629 125 601 l 125 702 l 23 702 m 249 844 l 315 1030 l 502 1030 l 572 844 l 472 844 l 409 1000 l 346 844 l 249 844 z "},"Ü":{"ha":821,"x_min":23,"x_max":798,"o":"m 23 702 l 23 782 l 330 782 l 330 702 l 233 702 l 233 256 q 242 180 233 213 q 272 125 252 147 q 327 91 293 102 q 408 79 360 79 q 495 92 460 79 q 550 127 530 104 q 580 185 571 151 q 589 264 589 220 l 589 702 l 492 702 l 492 782 l 798 782 l 798 702 l 697 702 q 697 546 697 621 q 698 411 698 471 q 698 311 698 351 q 699 258 699 270 q 676 133 699 184 q 614 50 653 82 q 525 2 576 17 q 416 -12 473 -12 q 269 11 326 -12 q 179 72 212 34 q 135 158 147 109 q 123 259 123 207 q 123 284 123 263 q 124 337 123 305 q 124 407 124 368 q 124 486 124 446 q 125 564 125 526 q 125 629 125 601 l 125 702 l 23 702 m 568 983 l 568 879 l 465 879 l 465 983 l 568 983 m 357 983 l 357 879 l 253 879 l 253 983 l 357 983 z "},"Ý":{"ha":766,"x_min":-12,"x_max":777,"o":"m 222 79 l 330 79 l 330 359 l 87 702 l -12 702 l -12 782 l 308 782 l 308 702 l 206 702 l 392 439 l 566 702 l 465 702 l 465 782 l 777 782 l 777 702 l 671 702 l 438 359 l 438 79 l 549 79 l 549 0 l 222 0 l 222 79 m 279 856 l 347 1030 l 487 1030 l 360 856 l 279 856 z "},"Þ":{"ha":699,"x_min":43,"x_max":673,"o":"m 43 85 l 145 85 l 145 696 l 43 696 l 43 782 l 254 782 l 254 679 l 404 679 q 537 657 486 679 q 620 601 589 635 q 661 524 650 566 q 673 443 673 482 q 649 325 673 371 q 583 251 625 278 q 482 214 541 224 q 354 203 423 203 l 255 203 l 255 85 l 362 85 l 362 0 l 43 0 l 43 85 m 254 288 l 374 288 q 466 300 429 288 q 523 333 502 312 q 552 382 544 354 q 561 444 561 411 q 521 555 561 518 q 408 593 481 593 l 254 593 l 254 288 z "},"ß":{"ha":755,"x_min":49,"x_max":702,"o":"m 334 85 l 334 0 l 49 0 l 49 85 l 151 85 l 151 533 q 166 643 151 595 q 214 725 182 692 q 295 777 246 759 q 411 794 344 794 q 499 780 460 794 q 568 741 539 766 q 612 681 596 716 q 627 603 627 646 q 599 499 627 544 q 507 435 570 454 q 589 410 553 427 q 650 366 625 392 q 689 307 675 340 q 702 235 702 274 q 686 141 702 184 q 636 66 671 98 q 547 18 602 35 q 416 0 493 0 l 416 85 q 488 91 454 85 q 547 114 522 98 q 588 160 573 131 q 603 235 603 189 q 592 293 603 266 q 555 341 581 321 q 489 374 530 362 q 389 386 448 386 l 389 458 q 454 470 427 458 q 498 501 481 481 q 523 546 515 521 q 530 596 530 570 q 522 643 530 622 q 498 679 513 664 q 460 703 482 694 q 411 711 438 711 q 343 702 374 711 q 291 671 313 692 q 257 617 269 650 q 245 536 245 584 l 245 85 l 334 85 z "},"à":{"ha":603,"x_min":37,"x_max":602,"o":"m 69 480 q 160 536 106 517 q 284 556 214 556 q 391 541 348 556 q 458 500 433 526 q 494 443 484 475 q 505 376 505 410 l 505 73 l 602 73 l 602 0 l 414 0 l 413 56 q 362 23 386 37 q 316 2 338 10 q 270 -9 293 -5 q 222 -12 247 -12 q 145 1 179 -12 q 86 36 111 14 q 50 86 62 58 q 37 146 37 115 q 56 231 37 197 q 106 283 75 264 q 181 311 138 303 q 273 319 224 319 q 337 315 305 319 q 404 305 369 312 l 404 371 q 394 419 404 399 q 367 452 384 439 q 326 470 349 464 q 277 475 303 475 q 193 460 231 475 q 132 414 155 445 l 69 480 m 404 239 q 349 244 382 239 q 279 250 316 250 q 227 246 253 250 q 179 231 200 242 q 146 200 159 220 q 133 146 133 180 q 140 113 133 129 q 160 85 146 97 q 192 67 173 74 q 236 60 211 60 q 281 64 258 60 q 327 76 304 68 q 368 95 349 84 q 404 121 388 106 l 404 239 m 324 620 l 197 794 l 338 794 l 405 620 l 324 620 z "},"á":{"ha":603,"x_min":37,"x_max":602,"o":"m 69 480 q 160 536 106 517 q 284 556 214 556 q 391 541 348 556 q 458 500 433 526 q 494 443 484 475 q 505 376 505 410 l 505 73 l 602 73 l 602 0 l 414 0 l 413 56 q 362 23 386 37 q 316 2 338 10 q 270 -9 293 -5 q 222 -12 247 -12 q 145 1 179 -12 q 86 36 111 14 q 50 86 62 58 q 37 146 37 115 q 56 231 37 197 q 106 283 75 264 q 181 311 138 303 q 273 319 224 319 q 337 315 305 319 q 404 305 369 312 l 404 371 q 394 419 404 399 q 367 452 384 439 q 326 470 349 464 q 277 475 303 475 q 193 460 231 475 q 132 414 155 445 l 69 480 m 404 239 q 349 244 382 239 q 279 250 316 250 q 227 246 253 250 q 179 231 200 242 q 146 200 159 220 q 133 146 133 180 q 140 113 133 129 q 160 85 146 97 q 192 67 173 74 q 236 60 211 60 q 281 64 258 60 q 327 76 304 68 q 368 95 349 84 q 404 121 388 106 l 404 239 m 197 620 l 264 794 l 405 794 l 278 620 l 197 620 z "},"â":{"ha":603,"x_min":37,"x_max":602,"o":"m 69 480 q 160 536 106 517 q 284 556 214 556 q 391 541 348 556 q 458 500 433 526 q 494 443 484 475 q 505 376 505 410 l 505 73 l 602 73 l 602 0 l 414 0 l 413 56 q 362 23 386 37 q 316 2 338 10 q 270 -9 293 -5 q 222 -12 247 -12 q 145 1 179 -12 q 86 36 111 14 q 50 86 62 58 q 37 146 37 115 q 56 231 37 197 q 106 283 75 264 q 181 311 138 303 q 273 319 224 319 q 337 315 305 319 q 404 305 369 312 l 404 371 q 394 419 404 399 q 367 452 384 439 q 326 470 349 464 q 277 475 303 475 q 193 460 231 475 q 132 414 155 445 l 69 480 m 404 239 q 349 244 382 239 q 279 250 316 250 q 227 246 253 250 q 179 231 200 242 q 146 200 159 220 q 133 146 133 180 q 140 113 133 129 q 160 85 146 97 q 192 67 173 74 q 236 60 211 60 q 281 64 258 60 q 327 76 304 68 q 368 95 349 84 q 404 121 388 106 l 404 239 m 140 608 l 206 794 l 393 794 l 463 608 l 363 608 l 300 764 l 237 608 l 140 608 z "},"ã":{"ha":603,"x_min":37,"x_max":602,"o":"m 69 480 q 160 536 106 517 q 284 556 214 556 q 391 541 348 556 q 458 500 433 526 q 494 443 484 475 q 505 376 505 410 l 505 73 l 602 73 l 602 0 l 414 0 l 413 56 q 362 23 386 37 q 316 2 338 10 q 270 -9 293 -5 q 222 -12 247 -12 q 145 1 179 -12 q 86 36 111 14 q 50 86 62 58 q 37 146 37 115 q 56 231 37 197 q 106 283 75 264 q 181 311 138 303 q 273 319 224 319 q 337 315 305 319 q 404 305 369 312 l 404 371 q 394 419 404 399 q 367 452 384 439 q 326 470 349 464 q 277 475 303 475 q 193 460 231 475 q 132 414 155 445 l 69 480 m 404 239 q 349 244 382 239 q 279 250 316 250 q 227 246 253 250 q 179 231 200 242 q 146 200 159 220 q 133 146 133 180 q 140 113 133 129 q 160 85 146 97 q 192 67 173 74 q 236 60 211 60 q 281 64 258 60 q 327 76 304 68 q 368 95 349 84 q 404 121 388 106 l 404 239 m 95 665 q 109 729 98 702 q 136 773 120 755 q 172 798 152 790 q 214 806 192 806 q 266 799 240 806 q 315 783 291 791 q 361 766 339 774 q 403 759 383 759 q 455 803 445 759 l 508 803 q 471 697 503 735 q 387 659 440 659 q 332 666 358 659 q 282 683 306 673 q 237 699 258 692 q 195 707 215 707 q 163 696 174 707 q 149 665 153 685 l 95 665 z "},"ä":{"ha":603,"x_min":37,"x_max":602,"o":"m 69 480 q 160 536 106 517 q 284 556 214 556 q 391 541 348 556 q 458 500 433 526 q 494 443 484 475 q 505 376 505 410 l 505 73 l 602 73 l 602 0 l 414 0 l 413 56 q 362 23 386 37 q 316 2 338 10 q 270 -9 293 -5 q 222 -12 247 -12 q 145 1 179 -12 q 86 36 111 14 q 50 86 62 58 q 37 146 37 115 q 56 231 37 197 q 106 283 75 264 q 181 311 138 303 q 273 319 224 319 q 337 315 305 319 q 404 305 369 312 l 404 371 q 394 419 404 399 q 367 452 384 439 q 326 470 349 464 q 277 475 303 475 q 193 460 231 475 q 132 414 155 445 l 69 480 m 404 239 q 349 244 382 239 q 279 250 316 250 q 227 246 253 250 q 179 231 200 242 q 146 200 159 220 q 133 146 133 180 q 140 113 133 129 q 160 85 146 97 q 192 67 173 74 q 236 60 211 60 q 281 64 258 60 q 327 76 304 68 q 368 95 349 84 q 404 121 388 106 l 404 239 m 459 747 l 459 643 l 356 643 l 356 747 l 459 747 m 248 747 l 248 643 l 144 643 l 144 747 l 248 747 z "},"å":{"ha":603,"x_min":37,"x_max":602,"o":"m 69 480 q 160 536 106 517 q 284 556 214 556 q 391 541 348 556 q 458 500 433 526 q 494 443 484 475 q 505 376 505 410 l 505 73 l 602 73 l 602 0 l 414 0 l 413 56 q 362 23 386 37 q 316 2 338 10 q 270 -9 293 -5 q 222 -12 247 -12 q 145 1 179 -12 q 86 36 111 14 q 50 86 62 58 q 37 146 37 115 q 56 231 37 197 q 106 283 75 264 q 181 311 138 303 q 273 319 224 319 q 337 315 305 319 q 404 305 369 312 l 404 371 q 394 419 404 399 q 367 452 384 439 q 326 470 349 464 q 277 475 303 475 q 193 460 231 475 q 132 414 155 445 l 69 480 m 404 239 q 349 244 382 239 q 279 250 316 250 q 227 246 253 250 q 179 231 200 242 q 146 200 159 220 q 133 146 133 180 q 140 113 133 129 q 160 85 146 97 q 192 67 173 74 q 236 60 211 60 q 281 64 258 60 q 327 76 304 68 q 368 95 349 84 q 404 121 388 106 l 404 239 m 301 814 q 346 806 325 814 q 382 784 367 798 q 407 749 398 769 q 416 707 416 730 q 407 664 416 684 q 382 629 398 644 q 346 606 367 614 q 301 597 325 597 q 256 606 277 597 q 220 629 235 614 q 196 664 205 644 q 187 707 187 684 q 196 749 187 730 q 220 784 205 769 q 256 806 235 798 q 301 814 277 814 m 301 773 q 273 768 286 773 q 251 754 260 763 q 235 733 241 745 q 230 707 230 721 q 235 680 230 692 q 251 659 241 668 q 273 645 260 650 q 301 640 286 640 q 329 645 316 640 q 351 659 342 650 q 366 680 361 668 q 372 707 372 692 q 366 733 372 721 q 351 754 361 745 q 329 768 342 763 q 301 773 316 773 z "},"æ":{"ha":985,"x_min":37,"x_max":945,"o":"m 222 -9 q 145 4 179 -9 q 86 39 111 17 q 50 90 62 61 q 37 150 37 119 q 56 231 37 199 q 106 283 75 264 q 181 311 138 302 q 273 319 224 319 q 337 315 305 319 q 404 305 369 312 l 404 371 q 393 422 404 401 q 364 456 382 443 q 322 475 346 469 q 271 481 298 481 q 145 425 185 481 l 50 451 q 139 533 81 505 q 284 561 197 561 q 354 553 323 561 q 409 533 385 546 q 449 501 432 519 q 476 461 465 483 q 568 534 515 508 q 686 561 621 561 q 799 536 751 561 q 880 470 848 512 q 929 374 913 429 q 945 259 945 319 l 945 246 l 515 248 q 533 175 519 208 q 568 119 546 142 q 621 82 590 95 q 691 68 651 68 q 786 89 742 68 q 859 147 830 110 l 945 109 q 843 17 908 50 q 689 -16 778 -16 q 562 7 617 -16 q 466 70 507 29 q 406 35 434 50 q 348 11 377 20 q 288 -4 319 1 q 222 -9 258 -9 m 848 317 q 830 380 843 350 q 797 434 817 411 q 750 470 777 456 q 688 484 722 484 q 622 471 651 484 q 571 436 592 458 q 536 383 549 414 q 517 317 522 353 l 848 317 m 404 239 q 349 244 382 239 q 279 250 316 250 q 227 246 253 250 q 179 231 200 242 q 146 201 159 220 q 133 150 133 181 q 159 89 133 113 q 236 65 185 65 q 281 69 258 65 q 327 80 304 73 q 368 98 349 87 q 404 121 388 108 l 404 239 z "},"ç":{"ha":610,"x_min":39,"x_max":562,"o":"m 562 106 q 463 19 526 51 q 315 -13 401 -13 q 188 13 240 -13 q 102 80 135 39 q 54 171 69 121 q 39 270 39 221 q 59 385 39 332 q 117 475 80 437 q 204 535 153 513 q 314 556 254 556 q 372 549 346 556 q 418 530 398 541 q 451 506 438 519 q 469 484 464 494 l 466 546 l 556 546 l 556 351 l 469 351 q 452 397 463 375 q 424 435 441 418 q 380 461 406 452 q 319 471 354 471 q 191 418 235 471 q 146 271 146 365 q 158 190 146 227 q 190 127 169 153 q 243 87 212 101 q 317 73 275 73 q 423 96 375 73 q 502 167 471 120 l 562 106 m 198 -178 q 228 -182 214 -181 q 256 -184 243 -184 q 303 -176 285 -184 q 321 -148 321 -168 q 303 -121 321 -131 q 254 -109 285 -111 l 294 3 l 342 3 l 324 -81 q 388 -102 365 -85 q 411 -148 411 -119 q 404 -183 411 -165 q 379 -215 396 -201 q 334 -237 362 -229 q 266 -246 307 -246 q 234 -245 250 -246 q 198 -241 217 -244 l 198 -178 z "},"è":{"ha":648,"x_min":37,"x_max":609,"o":"m 149 248 q 165 176 151 208 q 204 121 179 144 q 264 85 229 98 q 343 73 299 73 q 395 79 370 73 q 444 96 421 85 q 487 123 467 107 q 520 158 507 138 l 589 106 q 493 21 555 54 q 340 -12 432 -12 q 214 10 270 -12 q 118 71 157 33 q 58 162 79 110 q 37 273 37 214 q 60 387 37 334 q 123 476 83 439 q 218 535 163 514 q 338 556 273 556 q 456 532 405 556 q 541 467 507 508 q 592 372 575 426 q 609 259 609 318 l 609 248 l 149 248 m 511 317 q 494 378 507 350 q 458 427 480 406 q 407 459 437 448 q 339 471 376 471 q 266 459 298 471 q 210 428 233 448 q 172 380 186 408 q 151 317 157 351 l 511 317 m 347 620 l 220 794 l 360 794 l 427 620 l 347 620 z "},"é":{"ha":648,"x_min":37,"x_max":609,"o":"m 149 248 q 165 176 151 208 q 204 121 179 144 q 264 85 229 98 q 343 73 299 73 q 395 79 370 73 q 444 96 421 85 q 487 123 467 107 q 520 158 507 138 l 589 106 q 493 21 555 54 q 340 -12 432 -12 q 214 10 270 -12 q 118 71 157 33 q 58 162 79 110 q 37 273 37 214 q 60 387 37 334 q 123 476 83 439 q 218 535 163 514 q 338 556 273 556 q 456 532 405 556 q 541 467 507 508 q 592 372 575 426 q 609 259 609 318 l 609 248 l 149 248 m 511 317 q 494 378 507 350 q 458 427 480 406 q 407 459 437 448 q 339 471 376 471 q 266 459 298 471 q 210 428 233 448 q 172 380 186 408 q 151 317 157 351 l 511 317 m 220 620 l 287 794 l 427 794 l 300 620 l 220 620 z "},"ê":{"ha":648,"x_min":37,"x_max":609,"o":"m 149 248 q 165 176 151 208 q 204 121 179 144 q 264 85 229 98 q 343 73 299 73 q 395 79 370 73 q 444 96 421 85 q 487 123 467 107 q 520 158 507 138 l 589 106 q 493 21 555 54 q 340 -12 432 -12 q 214 10 270 -12 q 118 71 157 33 q 58 162 79 110 q 37 273 37 214 q 60 387 37 334 q 123 476 83 439 q 218 535 163 514 q 338 556 273 556 q 456 532 405 556 q 541 467 507 508 q 592 372 575 426 q 609 259 609 318 l 609 248 l 149 248 m 511 317 q 494 378 507 350 q 458 427 480 406 q 407 459 437 448 q 339 471 376 471 q 266 459 298 471 q 210 428 233 448 q 172 380 186 408 q 151 317 157 351 l 511 317 m 162 608 l 229 794 l 415 794 l 486 608 l 385 608 l 322 764 l 259 608 l 162 608 z "},"ë":{"ha":648,"x_min":37,"x_max":609,"o":"m 149 248 q 165 176 151 208 q 204 121 179 144 q 264 85 229 98 q 343 73 299 73 q 395 79 370 73 q 444 96 421 85 q 487 123 467 107 q 520 158 507 138 l 589 106 q 493 21 555 54 q 340 -12 432 -12 q 214 10 270 -12 q 118 71 157 33 q 58 162 79 110 q 37 273 37 214 q 60 387 37 334 q 123 476 83 439 q 218 535 163 514 q 338 556 273 556 q 456 532 405 556 q 541 467 507 508 q 592 372 575 426 q 609 259 609 318 l 609 248 l 149 248 m 511 317 q 494 378 507 350 q 458 427 480 406 q 407 459 437 448 q 339 471 376 471 q 266 459 298 471 q 210 428 233 448 q 172 380 186 408 q 151 317 157 351 l 511 317 m 481 747 l 481 643 l 378 643 l 378 747 l 481 747 m 271 747 l 271 643 l 166 643 l 166 747 l 271 747 z "},"ì":{"ha":345,"x_min":-56,"x_max":325,"o":"m 71 638 l -56 812 l 85 812 l 152 638 l 71 638 m 40 77 l 132 77 l 132 467 l 40 467 l 40 546 l 233 546 l 233 77 l 325 77 l 325 0 l 40 0 l 40 77 z "},"í":{"ha":345,"x_min":40,"x_max":337,"o":"m 130 638 l 197 812 l 337 812 l 210 638 l 130 638 m 40 77 l 132 77 l 132 467 l 40 467 l 40 546 l 233 546 l 233 77 l 325 77 l 325 0 l 40 0 l 40 77 z "},"î":{"ha":345,"x_min":-25,"x_max":325,"o":"m -25 627 l 41 814 l 228 814 l 298 627 l 198 627 l 135 783 l 72 627 l -25 627 m 40 77 l 132 77 l 132 467 l 40 467 l 40 546 l 233 546 l 233 77 l 325 77 l 325 0 l 40 0 l 40 77 z "},"ï":{"ha":345,"x_min":-18,"x_max":325,"o":"m 298 739 l 298 635 l 195 635 l 195 739 l 298 739 m 87 739 l 87 635 l -18 635 l -18 739 l 87 739 m 40 77 l 132 77 l 132 467 l 40 467 l 40 546 l 233 546 l 233 77 l 325 77 l 325 0 l 40 0 l 40 77 z "},"ð":{"ha":632,"x_min":43,"x_max":656,"o":"m 83 713 q 168 773 116 752 q 288 794 220 794 q 426 759 370 794 q 517 657 482 723 l 642 682 l 656 614 l 545 591 q 574 385 574 504 q 556 216 574 290 q 503 91 538 142 q 415 14 468 40 q 294 -13 363 -13 q 188 7 235 -13 q 110 63 142 28 q 60 146 77 98 q 43 249 43 194 q 60 343 43 300 q 107 419 77 387 q 180 469 138 451 q 276 487 223 487 q 334 482 305 487 q 389 467 363 477 q 437 444 415 458 q 476 412 460 430 q 471 501 476 460 q 456 574 466 541 l 312 545 l 298 614 l 427 640 q 370 696 407 679 q 291 713 334 713 q 243 708 267 713 q 198 695 220 703 q 159 676 177 687 q 127 652 140 665 l 83 713 m 472 310 q 428 348 452 332 q 379 375 404 364 q 330 390 354 385 q 288 395 307 395 q 224 384 252 395 q 177 352 196 372 q 148 304 157 332 q 138 243 138 276 q 148 176 138 207 q 178 121 158 144 q 229 85 199 98 q 298 72 258 72 q 371 87 340 72 q 422 132 401 102 q 455 207 443 162 q 472 310 467 251 z "},"ñ":{"ha":699,"x_min":39,"x_max":691,"o":"m 43 73 l 140 73 l 140 471 l 39 471 l 39 546 l 239 546 l 242 475 q 339 536 294 516 q 434 556 384 556 q 501 544 471 556 q 551 509 530 532 q 583 453 572 486 q 593 381 593 421 l 593 73 l 691 73 l 691 0 l 418 0 l 418 73 l 493 73 l 493 344 q 475 437 493 404 q 408 471 456 471 q 320 446 361 471 q 242 387 279 422 l 242 73 l 340 73 l 340 0 l 43 0 l 43 73 m 143 665 q 157 729 146 702 q 184 773 168 755 q 220 798 200 790 q 262 806 240 806 q 314 799 288 806 q 363 783 339 791 q 409 766 387 774 q 451 759 431 759 q 503 803 493 759 l 556 803 q 519 697 551 735 q 435 659 488 659 q 380 666 406 659 q 330 683 354 673 q 285 699 307 692 q 243 707 263 707 q 212 696 222 707 q 197 665 201 685 l 143 665 z "},"ò":{"ha":655,"x_min":39,"x_max":617,"o":"m 327 73 q 402 88 369 73 q 460 130 436 103 q 496 193 484 157 q 509 273 509 230 q 496 350 509 314 q 460 413 484 387 q 402 455 436 440 q 327 471 369 471 q 252 455 285 471 q 195 413 218 440 q 159 350 172 387 q 146 273 146 314 q 159 193 146 230 q 195 130 172 157 q 252 88 218 103 q 327 73 285 73 m 327 -12 q 207 10 260 -12 q 117 71 154 33 q 59 162 79 110 q 39 273 39 214 q 59 383 39 332 q 117 473 79 435 q 208 534 155 512 q 328 556 262 556 q 448 534 394 556 q 539 473 501 512 q 597 383 576 435 q 617 273 617 332 q 597 162 617 214 q 538 71 576 110 q 447 10 500 33 q 327 -12 393 -12 m 351 620 l 224 794 l 364 794 l 431 620 l 351 620 z "},"ó":{"ha":655,"x_min":39,"x_max":617,"o":"m 327 73 q 402 88 369 73 q 460 130 436 103 q 496 193 484 157 q 509 273 509 230 q 496 350 509 314 q 460 413 484 387 q 402 455 436 440 q 327 471 369 471 q 252 455 285 471 q 195 413 218 440 q 159 350 172 387 q 146 273 146 314 q 159 193 146 230 q 195 130 172 157 q 252 88 218 103 q 327 73 285 73 m 327 -12 q 207 10 260 -12 q 117 71 154 33 q 59 162 79 110 q 39 273 39 214 q 59 383 39 332 q 117 473 79 435 q 208 534 155 512 q 328 556 262 556 q 448 534 394 556 q 539 473 501 512 q 597 383 576 435 q 617 273 617 332 q 597 162 617 214 q 538 71 576 110 q 447 10 500 33 q 327 -12 393 -12 m 224 620 l 291 794 l 431 794 l 304 620 l 224 620 z "},"ô":{"ha":655,"x_min":39,"x_max":617,"o":"m 327 73 q 402 88 369 73 q 460 130 436 103 q 496 193 484 157 q 509 273 509 230 q 496 350 509 314 q 460 413 484 387 q 402 455 436 440 q 327 471 369 471 q 252 455 285 471 q 195 413 218 440 q 159 350 172 387 q 146 273 146 314 q 159 193 146 230 q 195 130 172 157 q 252 88 218 103 q 327 73 285 73 m 327 -12 q 207 10 260 -12 q 117 71 154 33 q 59 162 79 110 q 39 273 39 214 q 59 383 39 332 q 117 473 79 435 q 208 534 155 512 q 328 556 262 556 q 448 534 394 556 q 539 473 501 512 q 597 383 576 435 q 617 273 617 332 q 597 162 617 214 q 538 71 576 110 q 447 10 500 33 q 327 -12 393 -12 m 165 608 l 232 794 l 418 794 l 489 608 l 389 608 l 326 764 l 262 608 l 165 608 z "},"õ":{"ha":655,"x_min":39,"x_max":617,"o":"m 327 73 q 402 88 369 73 q 460 130 436 103 q 496 193 484 157 q 509 273 509 230 q 496 350 509 314 q 460 413 484 387 q 402 455 436 440 q 327 471 369 471 q 252 455 285 471 q 195 413 218 440 q 159 350 172 387 q 146 273 146 314 q 159 193 146 230 q 195 130 172 157 q 252 88 218 103 q 327 73 285 73 m 327 -12 q 207 10 260 -12 q 117 71 154 33 q 59 162 79 110 q 39 273 39 214 q 59 383 39 332 q 117 473 79 435 q 208 534 155 512 q 328 556 262 556 q 448 534 394 556 q 539 473 501 512 q 597 383 576 435 q 617 273 617 332 q 597 162 617 214 q 538 71 576 110 q 447 10 500 33 q 327 -12 393 -12 m 121 665 q 135 729 124 702 q 162 773 146 755 q 198 798 178 790 q 240 806 218 806 q 291 799 266 806 q 341 783 317 791 q 387 766 365 774 q 429 759 409 759 q 481 803 471 759 l 534 803 q 497 697 528 735 q 412 659 466 659 q 358 666 384 659 q 308 683 332 673 q 262 699 284 692 q 221 707 241 707 q 189 696 199 707 q 175 665 179 685 l 121 665 z "},"ö":{"ha":655,"x_min":39,"x_max":617,"o":"m 327 73 q 402 88 369 73 q 460 130 436 103 q 496 193 484 157 q 509 273 509 230 q 496 350 509 314 q 460 413 484 387 q 402 455 436 440 q 327 471 369 471 q 252 455 285 471 q 195 413 218 440 q 159 350 172 387 q 146 273 146 314 q 159 193 146 230 q 195 130 172 157 q 252 88 218 103 q 327 73 285 73 m 327 -12 q 207 10 260 -12 q 117 71 154 33 q 59 162 79 110 q 39 273 39 214 q 59 383 39 332 q 117 473 79 435 q 208 534 155 512 q 328 556 262 556 q 448 534 394 556 q 539 473 501 512 q 597 383 576 435 q 617 273 617 332 q 597 162 617 214 q 538 71 576 110 q 447 10 500 33 q 327 -12 393 -12 m 485 747 l 485 643 l 382 643 l 382 747 l 485 747 m 274 747 l 274 643 l 170 643 l 170 747 l 274 747 z "},"÷":{"ha":789,"x_min":149,"x_max":631,"o":"m 631 402 l 631 322 l 149 322 l 149 402 l 631 402 m 340 640 l 444 640 l 444 537 l 340 537 l 340 640 m 340 186 l 444 186 l 444 82 l 340 82 l 340 186 z "},"ø":{"ha":656,"x_min":39,"x_max":617,"o":"m 327 -12 q 278 -9 301 -12 q 233 1 255 -5 l 189 -85 l 125 -56 l 170 29 q 72 131 106 68 q 39 273 39 195 q 59 383 39 332 q 117 473 79 435 q 208 534 155 512 q 328 556 262 556 q 431 540 385 556 l 476 628 l 540 599 l 494 509 q 585 410 553 471 q 617 273 617 349 q 597 162 617 214 q 538 71 576 110 q 447 10 500 33 q 327 -12 393 -12 m 146 273 q 163 181 146 222 q 212 113 180 140 l 390 460 q 327 471 363 471 q 252 455 285 471 q 195 413 218 440 q 159 350 172 387 q 146 273 146 314 m 327 73 q 402 88 369 73 q 460 130 436 103 q 496 193 484 157 q 509 273 509 230 q 493 358 509 319 q 450 423 478 396 l 274 79 q 327 73 295 73 z "},"ù":{"ha":674,"x_min":22,"x_max":658,"o":"m 460 0 l 456 68 q 367 7 412 27 q 272 -12 323 -12 q 195 1 227 -12 q 143 39 163 14 q 113 98 122 63 q 103 177 103 133 l 103 471 l 22 471 l 22 546 l 206 546 l 206 182 q 225 101 206 129 q 291 73 244 73 q 381 100 338 73 q 456 170 424 127 l 456 471 l 358 471 l 358 546 l 559 546 l 559 73 l 658 73 l 658 0 l 460 0 m 360 620 l 233 794 l 374 794 l 441 620 l 360 620 z "},"ú":{"ha":674,"x_min":22,"x_max":658,"o":"m 460 0 l 456 68 q 367 7 412 27 q 272 -12 323 -12 q 195 1 227 -12 q 143 39 163 14 q 113 98 122 63 q 103 177 103 133 l 103 471 l 22 471 l 22 546 l 206 546 l 206 182 q 225 101 206 129 q 291 73 244 73 q 381 100 338 73 q 456 170 424 127 l 456 471 l 358 471 l 358 546 l 559 546 l 559 73 l 658 73 l 658 0 l 460 0 m 233 620 l 300 794 l 441 794 l 314 620 l 233 620 z "},"û":{"ha":674,"x_min":22,"x_max":658,"o":"m 460 0 l 456 68 q 367 7 412 27 q 272 -12 323 -12 q 195 1 227 -12 q 143 39 163 14 q 113 98 122 63 q 103 177 103 133 l 103 471 l 22 471 l 22 546 l 206 546 l 206 182 q 225 101 206 129 q 291 73 244 73 q 381 100 338 73 q 456 170 424 127 l 456 471 l 358 471 l 358 546 l 559 546 l 559 73 l 658 73 l 658 0 l 460 0 m 175 608 l 241 794 l 428 794 l 498 608 l 398 608 l 335 764 l 272 608 l 175 608 z "},"ü":{"ha":674,"x_min":22,"x_max":658,"o":"m 460 0 l 456 68 q 367 7 412 27 q 272 -12 323 -12 q 195 1 227 -12 q 143 39 163 14 q 113 98 122 63 q 103 177 103 133 l 103 471 l 22 471 l 22 546 l 206 546 l 206 182 q 225 101 206 129 q 291 73 244 73 q 381 100 338 73 q 456 170 424 127 l 456 471 l 358 471 l 358 546 l 559 546 l 559 73 l 658 73 l 658 0 l 460 0 m 494 747 l 494 643 l 391 643 l 391 747 l 494 747 m 283 747 l 283 643 l 179 643 l 179 747 l 283 747 z "},"ý":{"ha":666,"x_min":-1,"x_max":663,"o":"m 92 -73 l 168 -73 l 168 -127 q 208 -125 190 -127 q 241 -114 226 -123 q 270 -85 256 -104 q 298 -28 283 -65 l 328 47 l 263 47 l 84 471 l -1 471 l -1 546 l 275 546 l 275 471 l 201 471 l 338 110 l 352 110 l 410 293 l 461 471 l 383 471 l 383 546 l 663 546 l 663 471 l 576 471 l 429 24 q 389 -81 410 -36 q 339 -156 368 -126 q 271 -201 311 -186 q 176 -216 232 -216 q 136 -215 159 -216 q 92 -210 113 -213 l 92 -73 m 229 620 l 296 794 l 437 794 l 310 620 l 229 620 z "},"þ":{"ha":696,"x_min":16,"x_max":687,"o":"m 16 -111 l 114 -111 l 114 700 l 17 700 l 17 782 l 216 782 l 216 479 q 307 537 259 519 q 417 556 355 556 q 530 534 479 556 q 615 475 580 513 q 668 387 650 437 q 687 278 687 336 q 668 165 687 218 q 614 73 649 112 q 529 11 579 33 q 416 -12 479 -12 q 357 -6 387 -12 q 302 11 328 -1 q 253 38 275 22 q 216 75 231 54 l 216 -187 l 16 -187 l 16 -111 m 395 73 q 472 88 438 73 q 529 130 506 103 q 564 192 552 156 q 576 269 576 227 q 564 346 576 309 q 527 410 551 382 q 469 454 503 438 q 393 471 435 471 q 336 462 362 471 q 287 440 309 454 q 247 412 265 427 q 216 382 229 397 l 216 155 q 249 127 231 142 q 290 100 268 113 q 339 80 313 88 q 395 73 365 73 z "},"ÿ":{"ha":666,"x_min":-1,"x_max":663,"o":"m 92 -73 l 168 -73 l 168 -127 q 208 -125 190 -127 q 241 -114 226 -123 q 270 -85 256 -104 q 298 -28 283 -65 l 328 47 l 263 47 l 84 471 l -1 471 l -1 546 l 275 546 l 275 471 l 201 471 l 338 110 l 352 110 l 410 293 l 461 471 l 383 471 l 383 546 l 663 546 l 663 471 l 576 471 l 429 24 q 389 -81 410 -36 q 339 -156 368 -126 q 271 -201 311 -186 q 176 -216 232 -216 q 136 -215 159 -216 q 92 -210 113 -213 l 92 -73 m 490 747 l 490 643 l 387 643 l 387 747 l 490 747 m 279 747 l 279 643 l 175 643 l 175 747 l 279 747 z "},"ħ":{"ha":694,"x_min":14,"x_max":695,"o":"m 14 73 l 117 73 l 117 700 l 16 700 l 16 782 l 218 782 l 218 492 q 425 556 315 556 q 598 377 598 556 q 598 362 598 375 q 598 328 598 349 q 597 280 597 307 q 597 227 597 254 l 597 73 l 695 73 l 695 0 l 428 0 l 428 73 l 497 73 l 497 358 q 493 402 497 381 q 478 438 489 422 q 449 462 467 453 q 402 471 431 471 q 312 456 361 471 q 218 412 264 442 l 218 73 l 317 73 l 317 0 l 14 0 l 14 73 m 59 635 l 280 635 l 280 577 l 59 577 l 59 635 z "},"Ĩ":{"ha":394,"x_min":-9,"x_max":404,"o":"m 51 79 l 142 79 l 142 702 l 51 702 l 51 782 l 341 782 l 341 702 l 252 702 l 252 79 l 341 79 l 341 0 l 51 0 l 51 79 m -9 901 q 5 965 -5 938 q 32 1009 16 991 q 68 1034 48 1026 q 111 1042 88 1042 q 162 1035 136 1042 q 211 1019 187 1027 q 257 1002 235 1010 q 299 995 279 995 q 351 1039 341 995 l 404 1039 q 368 933 399 971 q 283 895 336 895 q 228 902 254 895 q 178 919 202 909 q 133 935 155 928 q 92 943 111 943 q 60 932 70 943 q 45 901 50 921 l -9 901 z "},"ĩ":{"ha":345,"x_min":-33,"x_max":380,"o":"m 40 77 l 132 77 l 132 467 l 40 467 l 40 546 l 233 546 l 233 77 l 325 77 l 325 0 l 40 0 l 40 77 m -33 665 q -18 729 -29 702 q 8 773 -7 755 q 44 798 24 790 q 87 806 64 806 q 138 799 113 806 q 188 783 163 791 q 234 766 212 774 q 275 759 256 759 q 328 803 317 759 l 380 803 q 344 697 375 735 q 259 659 313 659 q 204 666 231 659 q 155 683 178 673 q 109 699 131 692 q 68 707 87 707 q 36 696 46 707 q 22 665 26 685 l -33 665 z "},"ı":{"ha":345,"x_min":40,"x_max":325,"o":"m 40 77 l 132 77 l 132 467 l 40 467 l 40 546 l 233 546 l 233 77 l 325 77 l 325 0 l 40 0 l 40 77 z "},"Ĳ":{"ha":772,"x_min":51,"x_max":742,"o":"m 51 79 l 142 79 l 142 702 l 51 702 l 51 782 l 341 782 l 341 702 l 252 702 l 252 79 l 341 79 l 341 0 l 51 0 l 51 79 m 351 -41 q 386 -43 366 -43 q 432 -44 405 -44 q 506 -17 485 -44 q 528 65 528 9 l 528 702 l 422 702 l 422 782 l 742 782 l 742 702 l 638 702 l 638 53 q 621 -42 638 -4 q 577 -102 604 -79 q 516 -133 550 -124 q 450 -142 483 -142 q 398 -139 425 -142 q 351 -132 371 -136 l 351 -41 z "},"ĳ":{"ha":639,"x_min":40,"x_max":562,"o":"m 40 73 l 132 73 l 132 471 l 40 471 l 40 546 l 233 546 l 233 73 l 325 73 l 325 0 l 40 0 l 40 73 m 119 723 q 124 746 119 735 q 137 765 129 757 q 157 778 146 773 q 181 782 168 782 q 225 765 208 782 q 243 723 243 748 q 225 681 243 698 q 181 664 208 664 q 157 668 168 664 q 137 681 146 673 q 124 700 129 689 q 119 723 119 711 m 299 -159 q 326 -161 315 -161 q 351 -162 338 -162 q 399 -155 380 -162 q 429 -131 418 -147 q 446 -90 441 -115 q 450 -29 450 -65 l 450 471 l 347 471 l 347 546 l 553 546 l 553 3 q 548 -94 553 -49 q 524 -174 543 -140 q 467 -229 505 -208 q 361 -250 428 -249 q 330 -249 344 -250 q 299 -245 315 -248 l 299 -159 m 437 723 q 455 765 437 748 q 499 782 473 782 q 544 765 526 782 q 562 723 562 748 q 544 681 562 698 q 499 664 526 664 q 455 681 473 664 q 437 723 437 698 z "},"Ĵ":{"ha":378,"x_min":-43,"x_max":351,"o":"m 27 866 l 94 1053 l 280 1053 l 351 866 l 250 866 l 187 1022 l 124 866 l 27 866 m -43 -41 q -8 -43 -28 -43 q 38 -44 11 -44 q 112 -17 91 -44 q 134 65 134 9 l 134 702 l 28 702 l 28 782 l 348 782 l 348 702 l 244 702 l 244 53 q 227 -42 244 -4 q 183 -102 210 -79 q 122 -133 156 -124 q 56 -142 89 -142 q 4 -139 31 -142 q -43 -132 -23 -136 l -43 -41 z "},"ĵ":{"ha":299,"x_min":-41,"x_max":312,"o":"m -41 -159 q -14 -161 -25 -161 q 12 -162 -2 -162 q 59 -155 40 -162 q 90 -131 78 -147 q 106 -90 101 -115 q 111 -29 111 -65 l 111 467 l 7 467 l 7 546 l 213 546 l 213 3 q 208 -94 213 -49 q 184 -174 203 -140 q 127 -229 165 -208 q 21 -250 88 -249 q -10 -249 4 -250 q -41 -245 -24 -248 l -41 -159 m 97 723 q 115 765 97 748 q 159 782 133 782 q 204 765 186 782 q 222 723 222 748 q 204 681 222 698 q 159 664 186 664 q 115 681 133 664 q 97 723 97 698 m -12 608 l 55 794 l 241 794 l 312 608 l 212 608 l 149 764 l 85 608 l -12 608 z "},"ķ":{"ha":675,"x_min":14,"x_max":655,"o":"m 14 73 l 117 73 l 117 700 l 14 700 l 14 782 l 218 782 l 218 292 l 441 471 l 347 471 l 347 546 l 650 546 l 650 471 l 560 471 l 335 281 l 567 73 l 655 73 l 655 0 l 370 0 l 370 73 l 441 73 l 218 275 l 218 73 l 289 73 l 289 0 l 14 0 l 14 73 m 260 -81 l 414 -81 l 414 -224 q 407 -293 414 -262 q 381 -343 399 -323 q 333 -374 363 -363 q 260 -385 304 -385 l 260 -326 q 299 -314 283 -321 q 324 -295 315 -307 q 338 -266 334 -283 q 342 -224 342 -248 l 260 -224 l 260 -81 z "},"ĸ":{"ha":675,"x_min":14,"x_max":655,"o":"m 14 77 l 117 77 l 117 473 l 14 473 l 14 555 l 218 555 l 218 285 l 441 467 l 347 467 l 347 546 l 650 546 l 650 467 l 560 467 l 335 275 l 567 77 l 655 77 l 655 0 l 370 0 l 370 77 l 441 77 l 218 268 l 218 77 l 289 77 l 289 0 l 14 0 l 14 77 z "},"Ŀ":{"ha":1158,"x_min":0,"x_max":0,"o":""},"ŀ":{"ha":584,"x_min":14,"x_max":515,"o":"m 399 460 l 515 460 l 515 327 l 399 327 l 399 460 m 14 73 l 117 73 l 117 700 l 16 700 l 16 782 l 218 782 l 218 73 l 309 73 l 309 0 l 14 0 l 14 73 z "},"Ł":{"ha":668,"x_min":40,"x_max":633,"o":"m 40 85 l 147 85 l 147 347 l 41 305 l 41 393 l 147 435 l 147 696 l 40 696 l 40 782 l 361 782 l 361 696 l 256 696 l 256 478 l 425 546 l 425 458 l 256 391 l 256 85 l 534 85 l 534 327 l 633 327 l 633 0 l 40 0 l 40 85 z "},"ł":{"ha":347,"x_min":14,"x_max":320,"o":"m 14 77 l 117 77 l 117 340 l 24 305 l 24 393 l 117 429 l 117 700 l 16 700 l 16 782 l 218 782 l 218 468 l 320 507 l 320 415 l 218 377 l 218 77 l 309 77 l 309 0 l 14 0 l 14 77 z "},"Ń":{"ha":897,"x_min":38,"x_max":877,"o":"m 38 79 l 153 79 l 153 702 l 38 702 l 38 782 l 297 782 l 669 143 l 669 702 l 557 702 l 557 782 l 877 782 l 877 702 l 760 702 l 760 0 l 635 0 l 243 676 l 243 79 l 358 79 l 358 0 l 38 0 l 38 79 m 345 856 l 412 1030 l 552 1030 l 425 856 l 345 856 z "},"ń":{"ha":699,"x_min":39,"x_max":691,"o":"m 43 73 l 140 73 l 140 471 l 39 471 l 39 546 l 239 546 l 242 475 q 339 536 294 516 q 434 556 384 556 q 501 544 471 556 q 551 509 530 532 q 583 453 572 486 q 593 381 593 421 l 593 73 l 691 73 l 691 0 l 418 0 l 418 73 l 493 73 l 493 344 q 475 437 493 404 q 408 471 456 471 q 320 446 361 471 q 242 387 279 422 l 242 73 l 340 73 l 340 0 l 43 0 l 43 73 m 245 620 l 313 794 l 453 794 l 326 620 l 245 620 z "},"Œ":{"ha":1302,"x_min":45,"x_max":1242,"o":"m 1242 782 l 1242 564 l 1153 564 l 1153 696 l 798 696 l 798 444 l 1043 444 l 1052 522 l 1111 522 l 1111 278 l 1051 278 l 1042 357 l 799 357 l 799 86 l 1155 86 l 1155 222 l 1242 222 l 1242 0 l 690 0 l 690 64 q 578 7 643 28 q 431 -13 513 -13 q 270 18 341 -13 q 148 104 198 50 q 72 232 98 159 q 45 390 45 305 q 72 549 45 475 q 148 677 98 623 q 270 763 198 732 q 431 794 341 794 q 578 774 513 794 q 690 717 643 753 l 690 782 l 1242 782 m 166 390 q 190 253 166 311 q 254 157 214 195 q 347 101 294 119 q 457 83 400 83 q 577 102 517 83 q 690 159 637 121 l 690 633 q 570 687 630 669 q 450 705 509 705 q 340 686 391 705 q 250 628 288 667 q 189 530 211 589 q 166 390 166 471 z "},"œ":{"ha":1118,"x_min":39,"x_max":1077,"o":"m 327 -12 q 207 10 260 -12 q 117 71 154 33 q 59 162 79 110 q 39 273 39 214 q 59 383 39 332 q 117 473 79 435 q 208 534 155 512 q 328 556 262 556 q 468 525 408 556 q 564 443 527 494 q 667 526 605 496 q 806 556 730 556 q 924 532 873 556 q 1009 467 975 508 q 1060 372 1043 426 q 1077 259 1077 318 l 1077 248 l 616 248 q 633 176 618 208 q 672 121 647 144 q 732 85 697 98 q 811 73 767 73 q 863 79 838 73 q 912 96 889 85 q 955 123 935 107 q 988 158 975 138 l 1057 106 q 961 21 1023 54 q 808 -12 900 -12 q 664 18 726 -12 q 563 101 602 48 q 466 19 526 50 q 327 -12 407 -12 m 327 73 q 402 88 369 73 q 460 130 436 103 q 496 193 484 157 q 509 273 509 230 q 496 350 509 314 q 460 413 484 387 q 402 455 436 440 q 327 471 369 471 q 252 455 285 471 q 195 413 218 440 q 159 350 172 387 q 146 273 146 314 q 159 193 146 230 q 195 130 172 157 q 252 88 218 103 q 327 73 285 73 m 979 317 q 962 378 975 350 q 926 427 948 406 q 874 459 905 448 q 807 471 844 471 q 733 459 766 471 q 678 428 701 448 q 640 380 654 408 q 619 317 625 351 l 979 317 z "},"Ŕ":{"ha":751,"x_min":39,"x_max":752,"o":"m 39 79 l 149 79 l 149 702 l 39 702 l 39 782 l 412 782 q 528 767 479 782 q 608 726 576 753 q 655 663 640 700 q 670 580 670 625 q 627 448 670 500 q 494 378 585 396 l 653 79 l 752 79 l 752 0 l 581 0 l 389 365 l 258 365 l 258 79 l 363 79 l 363 0 l 39 0 l 39 79 m 409 446 q 482 457 453 446 q 528 488 511 469 q 551 531 545 507 q 558 580 558 555 q 517 670 558 637 q 404 702 476 702 l 258 702 l 258 446 l 409 446 m 271 856 l 338 1030 l 479 1030 l 352 856 l 271 856 z "},"Ŗ":{"ha":751,"x_min":39,"x_max":752,"o":"m 39 79 l 149 79 l 149 702 l 39 702 l 39 782 l 412 782 q 528 767 479 782 q 608 726 576 753 q 655 663 640 700 q 670 580 670 625 q 627 448 670 500 q 494 378 585 396 l 653 79 l 752 79 l 752 0 l 581 0 l 389 365 l 258 365 l 258 79 l 363 79 l 363 0 l 39 0 l 39 79 m 409 446 q 482 457 453 446 q 528 488 511 469 q 551 531 545 507 q 558 580 558 555 q 517 670 558 637 q 404 702 476 702 l 258 702 l 258 446 l 409 446 m 298 -99 l 452 -99 l 452 -242 q 445 -311 452 -281 q 419 -361 437 -341 q 371 -392 401 -382 q 298 -403 342 -403 l 298 -344 q 337 -332 321 -339 q 362 -313 353 -325 q 376 -284 372 -301 q 380 -242 380 -267 l 298 -242 l 298 -99 z "},"ŗ":{"ha":516,"x_min":39,"x_max":498,"o":"m 43 73 l 153 73 l 153 471 l 39 471 l 39 546 l 235 546 l 236 427 q 275 489 254 465 q 321 529 296 514 q 374 550 345 544 q 435 556 402 556 q 498 552 464 556 l 494 458 q 484 459 494 458 q 463 459 474 459 q 440 460 451 460 q 428 460 430 460 q 345 446 378 460 q 291 405 311 431 q 263 341 271 378 q 254 258 254 304 l 254 73 l 374 73 l 374 0 l 43 0 l 43 73 m 181 379 l 335 379 l 335 236 q 327 167 335 197 q 301 117 319 137 q 254 86 283 96 q 181 75 224 75 l 181 134 q 220 146 204 139 q 245 165 235 153 q 259 194 254 177 q 263 236 263 212 l 181 236 l 181 379 z "},"Ř":{"ha":751,"x_min":39,"x_max":752,"o":"m 39 79 l 149 79 l 149 702 l 39 702 l 39 782 l 412 782 q 528 767 479 782 q 608 726 576 753 q 655 663 640 700 q 670 580 670 625 q 627 448 670 500 q 494 378 585 396 l 653 79 l 752 79 l 752 0 l 581 0 l 389 365 l 258 365 l 258 79 l 363 79 l 363 0 l 39 0 l 39 79 m 409 446 q 482 457 453 446 q 528 488 511 469 q 551 531 545 507 q 558 580 558 555 q 517 670 558 637 q 404 702 476 702 l 258 702 l 258 446 l 409 446 m 273 1030 l 377 926 l 480 1030 l 551 1030 l 443 854 l 310 854 l 200 1030 l 273 1030 z "},"ř":{"ha":516,"x_min":39,"x_max":498,"o":"m 43 73 l 153 73 l 153 471 l 39 471 l 39 546 l 235 546 l 236 427 q 275 489 254 465 q 321 529 296 514 q 374 550 345 544 q 435 556 402 556 q 498 552 464 556 l 494 458 q 484 459 494 458 q 463 459 474 459 q 440 460 451 460 q 428 460 430 460 q 345 446 378 460 q 291 405 311 431 q 263 341 271 378 q 254 258 254 304 l 254 73 l 374 73 l 374 0 l 43 0 l 43 73 m 155 794 l 260 690 l 363 794 l 433 794 l 326 618 l 193 618 l 83 794 l 155 794 z "},"Š":{"ha":659,"x_min":60,"x_max":617,"o":"m 357 -12 q 157 59 242 -12 l 157 0 l 65 0 l 65 262 l 157 262 l 157 184 q 244 105 197 131 q 355 79 291 79 q 417 89 389 79 q 465 116 445 99 q 495 156 484 133 q 505 206 505 179 q 488 269 505 244 q 441 310 471 294 q 371 338 411 327 q 286 359 332 349 q 199 385 240 370 q 126 426 157 401 q 78 490 96 452 q 60 583 60 528 q 79 674 60 635 q 131 741 98 714 q 209 781 164 767 q 304 794 254 794 q 399 778 354 794 q 484 732 445 762 l 484 782 l 575 782 l 575 560 l 484 560 l 484 616 q 413 680 452 659 q 319 702 374 702 q 252 693 281 702 q 204 669 224 684 q 175 633 185 654 q 165 588 165 612 q 186 523 165 547 q 242 485 208 499 q 319 460 276 470 q 407 439 362 451 q 488 409 450 428 q 554 363 526 391 q 600 297 583 335 q 617 208 617 258 q 598 120 617 161 q 545 51 579 80 q 463 4 511 21 q 357 -12 415 -12 m 227 1030 l 331 926 l 434 1030 l 505 1030 l 397 854 l 264 854 l 154 1030 l 227 1030 z "},"š":{"ha":549,"x_min":51,"x_max":510,"o":"m 52 178 l 142 178 l 142 142 q 163 112 151 125 q 191 89 174 98 q 230 73 208 79 q 282 68 252 68 q 374 88 342 68 q 406 147 406 109 q 397 182 406 169 q 373 203 389 195 q 335 216 357 212 q 286 224 313 220 q 202 240 243 231 q 126 268 160 250 q 72 318 93 287 q 51 397 51 349 q 65 460 51 431 q 106 510 79 489 q 169 544 132 532 q 252 556 206 556 q 329 542 293 556 q 391 505 365 527 l 391 546 l 479 546 l 479 372 l 391 372 l 391 418 q 256 476 343 476 q 176 456 205 476 q 146 401 146 436 q 162 366 146 379 q 203 344 178 353 q 261 330 229 336 q 328 317 294 324 q 395 300 362 311 q 453 271 428 290 q 494 225 479 253 q 510 155 510 197 q 495 86 510 117 q 451 34 479 56 q 383 0 423 12 q 294 -12 343 -12 q 210 -1 247 -12 q 142 34 173 9 l 142 0 l 52 0 l 52 178 m 172 794 l 276 690 l 379 794 l 450 794 l 342 618 l 209 618 l 99 794 l 172 794 z "},"Ÿ":{"ha":766,"x_min":-12,"x_max":777,"o":"m 222 79 l 330 79 l 330 359 l 87 702 l -12 702 l -12 782 l 308 782 l 308 702 l 206 702 l 392 439 l 566 702 l 465 702 l 465 782 l 777 782 l 777 702 l 671 702 l 438 359 l 438 79 l 549 79 l 549 0 l 222 0 l 222 79 m 541 983 l 541 879 l 437 879 l 437 983 l 541 983 m 330 983 l 330 879 l 225 879 l 225 983 l 330 983 z "},"Ž":{"ha":685,"x_min":42,"x_max":633,"o":"m 42 87 l 488 702 l 150 702 l 150 565 l 62 565 l 62 782 l 627 782 l 627 706 l 174 79 l 546 79 l 546 227 l 633 227 l 633 0 l 42 0 l 42 87 m 239 1030 l 344 926 l 447 1030 l 517 1030 l 410 854 l 277 854 l 167 1030 l 239 1030 z "},"ž":{"ha":565,"x_min":37,"x_max":513,"o":"m 511 0 l 37 0 l 37 79 l 393 471 l 146 471 l 146 364 l 64 364 l 64 546 l 513 546 l 513 463 l 153 73 l 425 73 l 425 187 l 511 187 l 511 0 m 180 794 l 284 690 l 387 794 l 458 794 l 350 618 l 217 618 l 107 794 l 180 794 z "},"Ȁ":{"ha":811,"x_min":-9,"x_max":819,"o":"m 595 782 l 595 702 l 527 702 q 601 481 574 564 q 636 374 627 399 q 685 221 662 296 q 726 79 708 146 l 819 79 l 819 0 l 512 0 l 512 79 l 614 79 l 556 288 l 254 288 l 197 79 l 298 79 l 298 0 l -9 0 l -9 79 l 85 79 q 129 231 104 152 q 179 390 153 309 q 232 549 205 470 q 283 702 258 628 l 216 702 l 216 782 l 595 782 m 536 370 q 498 496 522 414 q 431 702 474 578 l 380 702 q 312 496 337 578 q 275 370 288 414 l 536 370 m 347 846 l 222 1030 l 351 1030 l 412 846 l 347 846 m 524 846 l 399 1030 l 528 1030 l 589 846 l 524 846 z "},"ȁ":{"ha":603,"x_min":37,"x_max":602,"o":"m 69 480 q 160 536 106 517 q 284 556 214 556 q 391 541 348 556 q 458 500 433 526 q 494 443 484 475 q 505 376 505 410 l 505 73 l 602 73 l 602 0 l 414 0 l 413 56 q 362 23 386 37 q 316 2 338 10 q 270 -9 293 -5 q 222 -12 247 -12 q 145 1 179 -12 q 86 36 111 14 q 50 86 62 58 q 37 146 37 115 q 56 231 37 197 q 106 283 75 264 q 181 311 138 303 q 273 319 224 319 q 337 315 305 319 q 404 305 369 312 l 404 371 q 394 419 404 399 q 367 452 384 439 q 326 470 349 464 q 277 475 303 475 q 193 460 231 475 q 132 414 155 445 l 69 480 m 404 239 q 349 244 382 239 q 279 250 316 250 q 227 246 253 250 q 179 231 200 242 q 146 200 159 220 q 133 146 133 180 q 140 113 133 129 q 160 85 146 97 q 192 67 173 74 q 236 60 211 60 q 281 64 258 60 q 327 76 304 68 q 368 95 349 84 q 404 121 388 106 l 404 239 m 243 610 l 118 794 l 247 794 l 308 610 l 243 610 m 420 610 l 295 794 l 424 794 l 485 610 l 420 610 z "},"Ȃ":{"ha":811,"x_min":-9,"x_max":819,"o":"m 595 782 l 595 702 l 527 702 q 601 481 574 564 q 636 374 627 399 q 685 221 662 296 q 726 79 708 146 l 819 79 l 819 0 l 512 0 l 512 79 l 614 79 l 556 288 l 254 288 l 197 79 l 298 79 l 298 0 l -9 0 l -9 79 l 85 79 q 129 231 104 152 q 179 390 153 309 q 232 549 205 470 q 283 702 258 628 l 216 702 l 216 782 l 595 782 m 536 370 q 498 496 522 414 q 431 702 474 578 l 380 702 q 312 496 337 578 q 275 370 288 414 l 536 370 m 231 873 q 248 933 233 906 q 284 978 262 960 q 338 1007 307 997 q 406 1018 369 1018 q 473 1007 442 1018 q 526 978 503 997 q 563 932 549 959 q 581 873 577 906 l 505 873 q 473 933 500 912 q 406 954 446 954 q 337 933 363 954 q 305 873 312 912 l 231 873 z "},"ȃ":{"ha":603,"x_min":37,"x_max":602,"o":"m 69 480 q 160 536 106 517 q 284 556 214 556 q 391 541 348 556 q 458 500 433 526 q 494 443 484 475 q 505 376 505 410 l 505 73 l 602 73 l 602 0 l 414 0 l 413 56 q 362 23 386 37 q 316 2 338 10 q 270 -9 293 -5 q 222 -12 247 -12 q 145 1 179 -12 q 86 36 111 14 q 50 86 62 58 q 37 146 37 115 q 56 231 37 197 q 106 283 75 264 q 181 311 138 303 q 273 319 224 319 q 337 315 305 319 q 404 305 369 312 l 404 371 q 394 419 404 399 q 367 452 384 439 q 326 470 349 464 q 277 475 303 475 q 193 460 231 475 q 132 414 155 445 l 69 480 m 404 239 q 349 244 382 239 q 279 250 316 250 q 227 246 253 250 q 179 231 200 242 q 146 200 159 220 q 133 146 133 180 q 140 113 133 129 q 160 85 146 97 q 192 67 173 74 q 236 60 211 60 q 281 64 258 60 q 327 76 304 68 q 368 95 349 84 q 404 121 388 106 l 404 239 m 126 637 q 143 697 129 670 q 180 742 157 724 q 234 771 203 761 q 301 782 264 782 q 368 771 338 782 q 422 742 399 761 q 459 696 445 723 q 476 637 473 670 l 401 637 q 369 697 395 676 q 301 718 342 718 q 233 697 258 718 q 201 637 208 676 l 126 637 z "},"Ȅ":{"ha":759,"x_min":41,"x_max":699,"o":"m 41 79 l 146 79 l 146 702 l 41 702 l 41 782 l 699 782 l 699 564 l 610 564 l 610 702 l 254 702 l 254 444 l 500 444 l 500 522 l 568 522 l 568 278 l 499 278 l 499 357 l 256 357 l 256 79 l 612 79 l 612 222 l 699 222 l 699 0 l 41 0 l 41 79 m 321 846 l 196 1030 l 325 1030 l 386 846 l 321 846 m 498 846 l 373 1030 l 502 1030 l 563 846 l 498 846 z "},"ȅ":{"ha":648,"x_min":37,"x_max":609,"o":"m 149 248 q 165 176 151 208 q 204 121 179 144 q 264 85 229 98 q 343 73 299 73 q 395 79 370 73 q 444 96 421 85 q 487 123 467 107 q 520 158 507 138 l 589 106 q 493 21 555 54 q 340 -12 432 -12 q 214 10 270 -12 q 118 71 157 33 q 58 162 79 110 q 37 273 37 214 q 60 387 37 334 q 123 476 83 439 q 218 535 163 514 q 338 556 273 556 q 456 532 405 556 q 541 467 507 508 q 592 372 575 426 q 609 259 609 318 l 609 248 l 149 248 m 511 317 q 494 378 507 350 q 458 427 480 406 q 407 459 437 448 q 339 471 376 471 q 266 459 298 471 q 210 428 233 448 q 172 380 186 408 q 151 317 157 351 l 511 317 m 265 610 l 140 794 l 269 794 l 330 610 l 265 610 m 443 610 l 317 794 l 446 794 l 507 610 l 443 610 z "},"Ȇ":{"ha":759,"x_min":41,"x_max":699,"o":"m 41 79 l 146 79 l 146 702 l 41 702 l 41 782 l 699 782 l 699 564 l 610 564 l 610 702 l 254 702 l 254 444 l 500 444 l 500 522 l 568 522 l 568 278 l 499 278 l 499 357 l 256 357 l 256 79 l 612 79 l 612 222 l 699 222 l 699 0 l 41 0 l 41 79 m 204 873 q 221 933 207 906 q 258 978 235 960 q 312 1007 281 997 q 379 1018 342 1018 q 446 1007 416 1018 q 500 978 477 997 q 537 932 523 959 q 554 873 551 906 l 479 873 q 447 933 473 912 q 379 954 420 954 q 311 933 336 954 q 279 873 286 912 l 204 873 z "},"ȇ":{"ha":648,"x_min":37,"x_max":609,"o":"m 149 248 q 165 176 151 208 q 204 121 179 144 q 264 85 229 98 q 343 73 299 73 q 395 79 370 73 q 444 96 421 85 q 487 123 467 107 q 520 158 507 138 l 589 106 q 493 21 555 54 q 340 -12 432 -12 q 214 10 270 -12 q 118 71 157 33 q 58 162 79 110 q 37 273 37 214 q 60 387 37 334 q 123 476 83 439 q 218 535 163 514 q 338 556 273 556 q 456 532 405 556 q 541 467 507 508 q 592 372 575 426 q 609 259 609 318 l 609 248 l 149 248 m 511 317 q 494 378 507 350 q 458 427 480 406 q 407 459 437 448 q 339 471 376 471 q 266 459 298 471 q 210 428 233 448 q 172 380 186 408 q 151 317 157 351 l 511 317 m 149 637 q 165 697 151 670 q 202 742 180 724 q 256 771 225 761 q 323 782 287 782 q 391 771 360 782 q 444 742 421 761 q 481 696 467 723 q 498 637 495 670 l 423 637 q 391 697 418 676 q 323 718 364 718 q 255 697 281 718 q 223 637 230 676 l 149 637 z "},"Ȉ":{"ha":394,"x_min":14,"x_max":380,"o":"m 51 79 l 142 79 l 142 702 l 51 702 l 51 782 l 341 782 l 341 702 l 252 702 l 252 79 l 341 79 l 341 0 l 51 0 l 51 79 m 138 846 l 14 1030 l 142 1030 l 203 846 l 138 846 m 316 846 l 191 1030 l 319 1030 l 380 846 l 316 846 z "},"ȉ":{"ha":345,"x_min":-10,"x_max":357,"o":"m 40 77 l 132 77 l 132 467 l 40 467 l 40 546 l 233 546 l 233 77 l 325 77 l 325 0 l 40 0 l 40 77 m 115 610 l -10 794 l 119 794 l 180 610 l 115 610 m 292 610 l 167 794 l 296 794 l 357 610 l 292 610 z "},"Ȋ":{"ha":394,"x_min":23,"x_max":373,"o":"m 51 79 l 142 79 l 142 702 l 51 702 l 51 782 l 341 782 l 341 702 l 252 702 l 252 79 l 341 79 l 341 0 l 51 0 l 51 79 m 23 873 q 40 933 26 906 q 77 978 54 960 q 131 1007 100 997 q 198 1018 161 1018 q 265 1007 235 1018 q 319 978 296 997 q 356 932 342 959 q 373 873 370 906 l 298 873 q 266 933 292 912 q 198 954 239 954 q 130 933 155 954 q 98 873 104 912 l 23 873 z "},"ȋ":{"ha":345,"x_min":-1,"x_max":349,"o":"m 40 73 l 132 73 l 132 471 l 40 471 l 40 546 l 233 546 l 233 73 l 325 73 l 325 0 l 40 0 l 40 73 m 119 723 q 124 746 119 735 q 137 765 129 757 q 157 778 146 773 q 181 782 168 782 q 225 765 208 782 q 243 723 243 748 q 225 681 243 698 q 181 664 208 664 q 157 668 168 664 q 137 681 146 673 q 124 700 129 689 q 119 723 119 711 m -1 637 q 16 697 1 670 q 53 742 30 724 q 106 771 75 761 q 174 782 137 782 q 241 771 210 782 q 294 742 271 761 q 331 696 317 723 q 349 637 345 670 l 273 637 q 241 697 268 676 q 174 718 214 718 q 105 697 131 718 q 73 637 80 676 l -1 637 z "},"Ȍ":{"ha":896,"x_min":45,"x_max":852,"o":"m 45 390 q 73 549 45 475 q 152 677 100 623 q 279 763 204 732 q 448 794 354 794 q 617 763 542 794 q 744 676 692 731 q 824 548 796 622 q 852 390 852 474 q 824 232 852 306 q 744 104 796 159 q 617 19 692 50 q 448 -13 542 -13 q 279 18 353 -13 q 152 104 204 50 q 73 232 100 159 q 45 390 45 305 m 165 390 q 185 269 165 326 q 242 171 205 213 q 331 104 279 128 q 448 79 383 79 q 565 104 512 79 q 654 171 617 128 q 711 269 691 213 q 731 390 731 326 q 711 512 731 455 q 654 611 691 569 q 565 678 617 654 q 448 702 512 702 q 331 678 383 702 q 242 611 279 654 q 185 512 205 569 q 165 390 165 455 m 389 846 l 264 1030 l 393 1030 l 454 846 l 389 846 m 567 846 l 441 1030 l 570 1030 l 631 846 l 567 846 z "},"ȍ":{"ha":655,"x_min":39,"x_max":617,"o":"m 327 73 q 402 88 369 73 q 460 130 436 103 q 496 193 484 157 q 509 273 509 230 q 496 350 509 314 q 460 413 484 387 q 402 455 436 440 q 327 471 369 471 q 252 455 285 471 q 195 413 218 440 q 159 350 172 387 q 146 273 146 314 q 159 193 146 230 q 195 130 172 157 q 252 88 218 103 q 327 73 285 73 m 327 -12 q 207 10 260 -12 q 117 71 154 33 q 59 162 79 110 q 39 273 39 214 q 59 383 39 332 q 117 473 79 435 q 208 534 155 512 q 328 556 262 556 q 448 534 394 556 q 539 473 501 512 q 597 383 576 435 q 617 273 617 332 q 597 162 617 214 q 538 71 576 110 q 447 10 500 33 q 327 -12 393 -12 m 269 610 l 144 794 l 273 794 l 334 610 l 269 610 m 446 610 l 321 794 l 450 794 l 511 610 l 446 610 z "},"Ȏ":{"ha":896,"x_min":45,"x_max":852,"o":"m 45 390 q 73 549 45 475 q 152 677 100 623 q 279 763 204 732 q 448 794 354 794 q 617 763 542 794 q 744 676 692 731 q 824 548 796 622 q 852 390 852 474 q 824 232 852 306 q 744 104 796 159 q 617 19 692 50 q 448 -13 542 -13 q 279 18 353 -13 q 152 104 204 50 q 73 232 100 159 q 45 390 45 305 m 165 390 q 185 269 165 326 q 242 171 205 213 q 331 104 279 128 q 448 79 383 79 q 565 104 512 79 q 654 171 617 128 q 711 269 691 213 q 731 390 731 326 q 711 512 731 455 q 654 611 691 569 q 565 678 617 654 q 448 702 512 702 q 331 678 383 702 q 242 611 279 654 q 185 512 205 569 q 165 390 165 455 m 273 873 q 290 933 275 906 q 327 978 304 960 q 380 1007 349 997 q 448 1018 411 1018 q 515 1007 484 1018 q 568 978 545 997 q 605 932 591 959 q 623 873 619 906 l 547 873 q 515 933 542 912 q 448 954 488 954 q 379 933 405 954 q 347 873 354 912 l 273 873 z "},"ȏ":{"ha":655,"x_min":39,"x_max":617,"o":"m 327 73 q 402 88 369 73 q 460 130 436 103 q 496 193 484 157 q 509 273 509 230 q 496 350 509 314 q 460 413 484 387 q 402 455 436 440 q 327 471 369 471 q 252 455 285 471 q 195 413 218 440 q 159 350 172 387 q 146 273 146 314 q 159 193 146 230 q 195 130 172 157 q 252 88 218 103 q 327 73 285 73 m 327 -12 q 207 10 260 -12 q 117 71 154 33 q 59 162 79 110 q 39 273 39 214 q 59 383 39 332 q 117 473 79 435 q 208 534 155 512 q 328 556 262 556 q 448 534 394 556 q 539 473 501 512 q 597 383 576 435 q 617 273 617 332 q 597 162 617 214 q 538 71 576 110 q 447 10 500 33 q 327 -12 393 -12 m 153 637 q 170 697 155 670 q 207 742 184 724 q 260 771 229 761 q 328 782 291 782 q 395 771 364 782 q 448 742 425 761 q 485 696 471 723 q 503 637 499 670 l 427 637 q 395 697 422 676 q 328 718 368 718 q 259 697 285 718 q 227 637 234 676 l 153 637 z "},"Ȑ":{"ha":751,"x_min":39,"x_max":752,"o":"m 39 79 l 149 79 l 149 702 l 39 702 l 39 782 l 412 782 q 528 767 479 782 q 608 726 576 753 q 655 663 640 700 q 670 580 670 625 q 627 448 670 500 q 494 378 585 396 l 653 79 l 752 79 l 752 0 l 581 0 l 389 365 l 258 365 l 258 79 l 363 79 l 363 0 l 39 0 l 39 79 m 409 446 q 482 457 453 446 q 528 488 511 469 q 551 531 545 507 q 558 580 558 555 q 517 670 558 637 q 404 702 476 702 l 258 702 l 258 446 l 409 446 m 317 846 l 192 1030 l 321 1030 l 382 846 l 317 846 m 494 846 l 369 1030 l 498 1030 l 559 846 l 494 846 z "},"ȑ":{"ha":516,"x_min":39,"x_max":498,"o":"m 43 73 l 153 73 l 153 471 l 39 471 l 39 546 l 235 546 l 236 427 q 275 489 254 465 q 321 529 296 514 q 374 550 345 544 q 435 556 402 556 q 498 552 464 556 l 494 458 q 484 459 494 458 q 463 459 474 459 q 440 460 451 460 q 428 460 430 460 q 345 446 378 460 q 291 405 311 431 q 263 341 271 378 q 254 258 254 304 l 254 73 l 374 73 l 374 0 l 43 0 l 43 73 m 199 610 l 75 794 l 203 794 l 264 610 l 199 610 m 377 610 l 252 794 l 380 794 l 441 610 l 377 610 z "},"Ȓ":{"ha":751,"x_min":39,"x_max":752,"o":"m 39 79 l 149 79 l 149 702 l 39 702 l 39 782 l 412 782 q 528 767 479 782 q 608 726 576 753 q 655 663 640 700 q 670 580 670 625 q 627 448 670 500 q 494 378 585 396 l 653 79 l 752 79 l 752 0 l 581 0 l 389 365 l 258 365 l 258 79 l 363 79 l 363 0 l 39 0 l 39 79 m 409 446 q 482 457 453 446 q 528 488 511 469 q 551 531 545 507 q 558 580 558 555 q 517 670 558 637 q 404 702 476 702 l 258 702 l 258 446 l 409 446 m 200 873 q 217 933 203 906 q 254 978 231 960 q 308 1007 277 997 q 375 1018 338 1018 q 442 1007 412 1018 q 496 978 473 997 q 533 932 519 959 q 550 873 547 906 l 475 873 q 443 933 469 912 q 375 954 416 954 q 307 933 332 954 q 275 873 281 912 l 200 873 z "},"ȓ":{"ha":516,"x_min":39,"x_max":498,"o":"m 43 73 l 153 73 l 153 471 l 39 471 l 39 546 l 235 546 l 236 427 q 275 489 254 465 q 321 529 296 514 q 374 550 345 544 q 435 556 402 556 q 498 552 464 556 l 494 458 q 484 459 494 458 q 463 459 474 459 q 440 460 451 460 q 428 460 430 460 q 345 446 378 460 q 291 405 311 431 q 263 341 271 378 q 254 258 254 304 l 254 73 l 374 73 l 374 0 l 43 0 l 43 73 m 83 637 q 100 697 85 670 q 137 742 114 724 q 190 771 159 761 q 258 782 221 782 q 325 771 294 782 q 378 742 355 761 q 415 696 401 723 q 433 637 429 670 l 357 637 q 325 697 352 676 q 258 718 298 718 q 190 697 215 718 q 157 637 164 676 l 83 637 z "},"Ȕ":{"ha":821,"x_min":23,"x_max":798,"o":"m 23 702 l 23 782 l 330 782 l 330 702 l 233 702 l 233 256 q 242 180 233 213 q 272 125 252 147 q 327 91 293 102 q 408 79 360 79 q 495 92 460 79 q 550 127 530 104 q 580 185 571 151 q 589 264 589 220 l 589 702 l 492 702 l 492 782 l 798 782 l 798 702 l 697 702 q 697 546 697 621 q 698 411 698 471 q 698 311 698 351 q 699 258 699 270 q 676 133 699 184 q 614 50 653 82 q 525 2 576 17 q 416 -12 473 -12 q 269 11 326 -12 q 179 72 212 34 q 135 158 147 109 q 123 259 123 207 q 123 284 123 263 q 124 337 123 305 q 124 407 124 368 q 124 486 124 446 q 125 564 125 526 q 125 629 125 601 l 125 702 l 23 702 m 352 846 l 227 1030 l 356 1030 l 417 846 l 352 846 m 530 846 l 404 1030 l 533 1030 l 594 846 l 530 846 z "},"ȕ":{"ha":674,"x_min":22,"x_max":658,"o":"m 460 0 l 456 68 q 367 7 412 27 q 272 -12 323 -12 q 195 1 227 -12 q 143 39 163 14 q 113 98 122 63 q 103 177 103 133 l 103 471 l 22 471 l 22 546 l 206 546 l 206 182 q 225 101 206 129 q 291 73 244 73 q 381 100 338 73 q 456 170 424 127 l 456 471 l 358 471 l 358 546 l 559 546 l 559 73 l 658 73 l 658 0 l 460 0 m 278 610 l 153 794 l 282 794 l 343 610 l 278 610 m 456 610 l 330 794 l 459 794 l 520 610 l 456 610 z "},"Ȗ":{"ha":821,"x_min":23,"x_max":798,"o":"m 23 702 l 23 782 l 330 782 l 330 702 l 233 702 l 233 256 q 242 180 233 213 q 272 125 252 147 q 327 91 293 102 q 408 79 360 79 q 495 92 460 79 q 550 127 530 104 q 580 185 571 151 q 589 264 589 220 l 589 702 l 492 702 l 492 782 l 798 782 l 798 702 l 697 702 q 697 546 697 621 q 698 411 698 471 q 698 311 698 351 q 699 258 699 270 q 676 133 699 184 q 614 50 653 82 q 525 2 576 17 q 416 -12 473 -12 q 269 11 326 -12 q 179 72 212 34 q 135 158 147 109 q 123 259 123 207 q 123 284 123 263 q 124 337 123 305 q 124 407 124 368 q 124 486 124 446 q 125 564 125 526 q 125 629 125 601 l 125 702 l 23 702 m 235 873 q 252 933 238 906 q 289 978 267 960 q 343 1007 312 997 q 410 1018 374 1018 q 477 1007 447 1018 q 531 978 508 997 q 568 932 554 959 q 585 873 582 906 l 510 873 q 478 933 505 912 q 410 954 451 954 q 342 933 368 954 q 310 873 317 912 l 235 873 z "},"ȗ":{"ha":674,"x_min":22,"x_max":658,"o":"m 460 0 l 456 68 q 367 7 412 27 q 272 -12 323 -12 q 195 1 227 -12 q 143 39 163 14 q 113 98 122 63 q 103 177 103 133 l 103 471 l 22 471 l 22 546 l 206 546 l 206 182 q 225 101 206 129 q 291 73 244 73 q 381 100 338 73 q 456 170 424 127 l 456 471 l 358 471 l 358 546 l 559 546 l 559 73 l 658 73 l 658 0 l 460 0 m 162 637 q 179 697 165 670 q 216 742 193 724 q 270 771 239 761 q 337 782 300 782 q 404 771 374 782 q 458 742 435 761 q 495 696 481 723 q 512 637 509 670 l 437 637 q 405 697 431 676 q 337 718 378 718 q 269 697 294 718 q 237 637 243 676 l 162 637 z "},"Ș":{"ha":659,"x_min":60,"x_max":617,"o":"m 357 -12 q 157 59 242 -12 l 157 0 l 65 0 l 65 262 l 157 262 l 157 184 q 244 105 197 131 q 355 79 291 79 q 417 89 389 79 q 465 116 445 99 q 495 156 484 133 q 505 206 505 179 q 488 269 505 244 q 441 310 471 294 q 371 338 411 327 q 286 359 332 349 q 199 385 240 370 q 126 426 157 401 q 78 490 96 452 q 60 583 60 528 q 79 674 60 635 q 131 741 98 714 q 209 781 164 767 q 304 794 254 794 q 399 778 354 794 q 484 732 445 762 l 484 782 l 575 782 l 575 560 l 484 560 l 484 616 q 413 680 452 659 q 319 702 374 702 q 252 693 281 702 q 204 669 224 684 q 175 633 185 654 q 165 588 165 612 q 186 523 165 547 q 242 485 208 499 q 319 460 276 470 q 407 439 362 451 q 488 409 450 428 q 554 363 526 391 q 600 297 583 335 q 617 208 617 258 q 598 120 617 161 q 545 51 579 80 q 463 4 511 21 q 357 -12 415 -12 m 279 -45 l 422 -45 l 422 -189 q 415 -257 422 -227 q 391 -307 408 -287 q 346 -338 374 -328 q 279 -349 319 -349 l 279 -290 q 334 -259 317 -281 q 351 -189 351 -237 l 279 -189 l 279 -45 z "},"ș":{"ha":549,"x_min":51,"x_max":510,"o":"m 52 178 l 142 178 l 142 142 q 163 112 151 125 q 191 89 174 98 q 230 73 208 79 q 282 68 252 68 q 374 88 342 68 q 406 147 406 109 q 397 182 406 169 q 373 203 389 195 q 335 216 357 212 q 286 224 313 220 q 202 240 243 231 q 126 268 160 250 q 72 318 93 287 q 51 397 51 349 q 65 460 51 431 q 106 510 79 489 q 169 544 132 532 q 252 556 206 556 q 329 542 293 556 q 391 505 365 527 l 391 546 l 479 546 l 479 372 l 391 372 l 391 418 q 256 476 343 476 q 176 456 205 476 q 146 401 146 436 q 162 366 146 379 q 203 344 178 353 q 261 330 229 336 q 328 317 294 324 q 395 300 362 311 q 453 271 428 290 q 494 225 479 253 q 510 155 510 197 q 495 86 510 117 q 451 34 479 56 q 383 0 423 12 q 294 -12 343 -12 q 210 -1 247 -12 q 142 34 173 9 l 142 0 l 52 0 l 52 178 m 205 -45 l 349 -45 l 349 -189 q 342 -257 349 -227 q 317 -307 334 -287 q 273 -338 300 -328 q 205 -349 245 -349 l 205 -290 q 261 -259 244 -281 q 277 -189 277 -237 l 205 -189 l 205 -45 z "},"Ț":{"ha":701,"x_min":29,"x_max":671,"o":"m 178 79 l 296 79 l 296 702 l 117 702 l 117 546 l 29 546 l 29 782 l 671 782 l 671 546 l 583 546 l 583 702 l 407 702 l 407 79 l 525 79 l 525 0 l 178 0 l 178 79 m 279 -45 l 422 -45 l 422 -189 q 415 -257 422 -227 q 391 -307 408 -287 q 346 -338 374 -328 q 279 -349 319 -349 l 279 -290 q 334 -259 317 -281 q 351 -189 351 -237 l 279 -189 l 279 -45 z "},"ț":{"ha":358,"x_min":24,"x_max":348,"o":"m 24 546 l 108 546 l 108 721 l 210 743 l 210 546 l 328 546 l 328 471 l 210 471 l 210 196 q 211 142 210 165 q 218 103 212 119 q 235 80 223 88 q 268 73 246 73 l 348 73 l 348 0 l 254 0 q 172 16 201 0 q 128 59 142 31 q 111 123 114 86 q 108 203 108 160 l 108 471 l 24 471 l 24 546 m 107 -45 l 251 -45 l 251 -189 q 243 -257 251 -227 q 219 -307 236 -287 q 175 -338 202 -328 q 107 -349 147 -349 l 107 -290 q 162 -259 146 -281 q 179 -189 179 -237 l 107 -189 l 107 -45 z "},"ˆ":{"ha":402,"x_min":39,"x_max":363,"o":"m 39 608 l 106 794 l 292 794 l 363 608 l 262 608 l 199 764 l 136 608 l 39 608 z "},"ˇ":{"ha":402,"x_min":26,"x_max":376,"o":"m 98 794 l 203 690 l 306 794 l 376 794 l 269 618 l 136 618 l 26 794 l 98 794 z "},"˘":{"ha":396,"x_min":23,"x_max":373,"o":"m 98 782 q 130 723 104 743 q 198 702 155 702 q 266 723 239 702 q 298 782 292 743 l 373 782 q 356 723 370 749 q 319 677 342 696 q 265 648 296 659 q 198 637 235 637 q 131 648 161 637 q 77 677 100 659 q 40 723 54 696 q 23 782 26 749 l 98 782 z "},"˙":{"ha":363,"x_min":120,"x_max":243,"o":"m 182 763 q 206 759 195 763 q 225 746 217 754 q 239 727 234 738 q 243 704 243 716 q 239 681 243 692 q 225 662 234 670 q 206 649 217 654 q 182 644 195 644 q 158 649 169 644 q 138 662 146 654 q 125 681 130 670 q 120 704 120 692 q 125 727 120 716 q 138 746 130 738 q 158 759 146 754 q 182 763 169 763 z "},"˚":{"ha":383,"x_min":77,"x_max":306,"o":"m 191 814 q 236 806 215 814 q 273 784 257 798 q 297 749 288 769 q 306 707 306 730 q 297 664 306 684 q 273 629 288 644 q 236 606 257 614 q 191 597 215 597 q 146 606 168 597 q 110 629 125 614 q 86 664 95 644 q 77 707 77 684 q 86 749 77 730 q 110 784 95 769 q 146 806 125 798 q 191 814 168 814 m 191 773 q 163 768 176 773 q 141 754 151 763 q 125 733 131 745 q 120 707 120 721 q 125 680 120 692 q 141 659 131 668 q 163 645 151 650 q 191 640 176 640 q 219 645 206 640 q 241 659 232 650 q 256 680 251 668 q 262 707 262 692 q 256 733 262 721 q 241 754 251 745 q 219 768 232 763 q 191 773 206 773 z "},"˛":{"ha":398,"x_min":93,"x_max":306,"o":"m 211 0 q 187 -44 193 -24 q 180 -85 180 -64 q 247 -158 180 -158 q 276 -155 262 -158 q 306 -144 290 -152 l 306 -214 q 258 -234 278 -228 q 215 -239 239 -239 q 166 -231 189 -239 q 127 -206 144 -222 q 102 -169 111 -191 q 93 -120 93 -146 q 95 -94 93 -107 q 101 -66 96 -81 q 114 -36 106 -52 q 134 0 121 -20 l 211 0 z "},"˜":{"ha":398,"x_min":-7,"x_max":406,"o":"m -7 665 q 7 729 -4 702 q 34 773 18 755 q 70 798 50 790 q 112 806 90 806 q 163 799 138 806 q 213 783 189 791 q 259 766 237 774 q 300 759 281 759 q 353 803 342 759 l 406 803 q 369 697 400 735 q 284 659 338 659 q 230 666 256 659 q 180 683 203 673 q 134 699 156 692 q 93 707 113 707 q 61 696 71 707 q 47 665 51 685 l -7 665 z "},"˝":{"ha":398,"x_min":17,"x_max":385,"o":"m 195 610 l 256 794 l 385 794 l 259 610 l 195 610 m 17 610 l 79 794 l 208 794 l 82 610 l 17 610 z "},"̇":{"ha":363,"x_min":120,"x_max":243,"o":"m 182 763 q 206 759 195 763 q 225 746 217 754 q 239 727 234 738 q 243 704 243 716 q 239 681 243 692 q 225 662 234 670 q 206 649 217 654 q 182 644 195 644 q 158 649 169 644 q 138 662 146 654 q 125 681 130 670 q 120 704 120 692 q 125 727 120 716 q 138 746 130 738 q 158 759 146 754 q 182 763 169 763 z "},"̏":{"ha":398,"x_min":-2,"x_max":365,"o":"m 123 610 l -2 794 l 127 794 l 188 610 l 123 610 m 300 610 l 175 794 l 304 794 l 365 610 l 300 610 z "},"̑":{"ha":396,"x_min":23,"x_max":373,"o":"m 23 637 q 40 697 26 670 q 77 742 54 724 q 131 771 100 761 q 198 782 161 782 q 265 771 235 782 q 319 742 296 761 q 356 696 342 723 q 373 637 370 670 l 298 637 q 266 697 292 676 q 198 718 239 718 q 130 697 155 718 q 98 637 104 676 l 23 637 z "},"̦":{"ha":376,"x_min":102,"x_max":246,"o":"m 102 -45 l 246 -45 l 246 -189 q 239 -257 246 -227 q 214 -307 231 -287 q 170 -338 197 -328 q 102 -349 142 -349 l 102 -290 q 158 -259 141 -281 q 174 -189 174 -237 l 102 -189 l 102 -45 z "},"–":{"ha":593,"x_min":0,"x_max":593,"o":"m 593 79 l 593 0 l 0 0 l 0 79 l 593 79 z "},"—":{"ha":1118,"x_min":0,"x_max":1118,"o":"m 1118 79 l 1118 0 l 0 0 l 0 79 l 1118 79 z "},"‘":{"ha":259,"x_min":56,"x_max":203,"o":"m 203 490 l 56 490 l 56 633 q 63 702 56 672 q 88 753 71 732 q 133 784 105 773 q 203 794 161 794 l 203 735 q 167 723 181 730 q 144 704 153 716 q 131 675 135 692 q 127 633 127 658 l 203 633 l 203 490 z "},"’":{"ha":247,"x_min":56,"x_max":203,"o":"m 56 782 l 203 782 l 203 639 q 195 570 203 600 q 171 519 188 540 q 125 489 153 499 q 56 478 97 478 l 56 537 q 91 549 77 542 q 115 568 106 556 q 127 597 123 580 q 131 639 131 614 l 56 639 l 56 782 z "},"‚":{"ha":264,"x_min":56,"x_max":203,"o":"m 56 143 l 203 143 l 203 0 q 195 -69 203 -39 q 171 -119 188 -99 q 125 -150 153 -140 q 56 -161 97 -161 l 56 -102 q 91 -90 77 -97 q 115 -71 106 -83 q 127 -42 123 -59 q 131 0 131 -24 l 56 0 l 56 143 z "},"“":{"ha":488,"x_min":56,"x_max":429,"o":"m 429 490 l 281 490 l 281 633 q 289 702 281 672 q 314 753 296 732 q 359 784 331 773 q 429 794 387 794 l 429 735 q 393 723 407 730 q 370 704 378 716 q 357 675 361 692 q 353 633 353 658 l 429 633 l 429 490 m 203 490 l 56 490 l 56 633 q 63 702 56 672 q 88 753 71 732 q 133 784 105 773 q 203 794 161 794 l 203 735 q 167 723 181 730 q 144 704 153 716 q 131 675 135 692 q 127 633 127 658 l 203 633 l 203 490 z "},"”":{"ha":477,"x_min":56,"x_max":429,"o":"m 56 782 l 203 782 l 203 639 q 195 570 203 600 q 171 519 188 540 q 125 489 153 499 q 56 478 97 478 l 56 537 q 91 549 77 542 q 115 568 106 556 q 127 597 123 580 q 131 639 131 614 l 56 639 l 56 782 m 281 782 l 429 782 l 429 639 q 421 570 429 600 q 396 519 414 540 q 351 489 379 499 q 281 478 323 478 l 281 537 q 317 549 302 542 q 340 568 332 556 q 353 597 349 580 q 357 639 357 614 l 281 639 l 281 782 z "},"„":{"ha":532,"x_min":56,"x_max":473,"o":"m 326 143 l 473 143 l 473 0 q 466 -69 473 -39 q 441 -119 458 -99 q 396 -150 424 -140 q 326 -161 368 -161 l 326 -102 q 362 -90 347 -97 q 385 -71 376 -83 q 398 -42 394 -59 q 401 0 401 -24 l 326 0 l 326 143 m 56 143 l 203 143 l 203 0 q 195 -69 203 -39 q 171 -119 188 -99 q 125 -150 153 -140 q 56 -161 97 -161 l 56 -102 q 91 -90 77 -97 q 115 -71 106 -83 q 127 -42 123 -59 q 131 0 131 -24 l 56 0 l 56 143 z "},"•":{"ha":379,"x_min":54,"x_max":326,"o":"m 190 511 q 243 501 218 511 q 286 474 268 491 q 315 432 304 456 q 326 381 326 408 q 315 330 326 354 q 286 288 304 306 q 243 260 268 271 q 190 250 218 250 q 137 260 161 250 q 94 288 112 271 q 65 330 75 306 q 54 381 54 354 q 65 432 54 408 q 94 474 75 456 q 137 501 112 491 q 190 511 161 511 z "},"‹":{"ha":362,"x_min":41,"x_max":317,"o":"m 317 0 l 220 0 l 41 283 l 220 568 l 317 568 l 142 283 l 317 0 z "},"›":{"ha":361,"x_min":44,"x_max":320,"o":"m 44 568 l 141 568 l 320 283 l 141 0 l 44 0 l 219 283 l 44 568 z "},"€":{"ha":741,"x_min":20,"x_max":718,"o":"m 115 369 l 115 390 q 115 418 115 404 q 117 446 116 432 l 20 446 l 20 523 l 130 523 q 170 629 144 580 q 233 715 195 679 q 319 773 270 752 q 427 794 368 794 q 492 786 463 794 q 542 765 520 778 q 580 737 564 752 q 608 707 596 722 l 608 782 l 696 782 l 696 545 l 612 545 q 543 664 586 625 q 439 702 499 702 q 373 689 404 702 q 319 653 343 676 q 278 596 296 629 q 250 523 260 564 l 419 523 l 419 446 l 237 446 q 235 393 235 420 l 235 369 l 419 369 l 419 292 l 242 292 q 265 206 250 245 q 304 139 280 167 q 363 95 329 111 q 444 79 397 79 q 501 88 473 79 q 554 118 530 97 q 597 173 578 139 q 626 256 616 206 l 718 208 q 663 98 696 141 q 593 31 631 56 q 514 -3 555 6 q 436 -13 473 -13 q 319 9 372 -13 q 226 70 267 31 q 159 166 186 110 q 122 292 133 222 l 20 292 l 20 369 l 115 369 z "},"™":{"ha":1049,"x_min":62,"x_max":952,"o":"m 444 782 l 444 718 l 290 718 l 290 335 l 218 335 l 218 718 l 62 718 l 62 782 l 444 782 m 844 782 l 952 782 l 952 335 l 886 335 l 886 713 l 884 713 l 756 335 l 695 335 l 568 713 l 566 713 l 566 335 l 499 335 l 499 782 l 607 782 l 726 431 l 844 782 z "},"·":{"ha":281,"x_min":58,"x_max":212,"o":"m 58 446 l 212 446 l 212 302 l 58 302 l 58 446 z "},"¯":{"ha":402,"x_min":89,"x_max":310,"o":"m 89 794 l 310 794 l 310 736 l 89 736 l 89 794 z "},"ȷ":{"ha":299,"x_min":-41,"x_max":222,"o":"m -41 -159 q -14 -161 -25 -161 q 12 -162 -2 -162 q 59 -155 40 -162 q 90 -131 78 -147 q 106 -90 101 -115 q 111 -29 111 -65 l 111 467 l 7 467 l 7 546 l 213 546 l 213 3 q 208 -94 213 -49 q 184 -174 203 -140 q 127 -229 165 -208 q 21 -250 88 -249 q -10 -249 4 -250 q -41 -245 -24 -248 l -41 -159 m 97 723 q 115 765 97 748 q 159 782 133 782 q 204 765 186 782 q 222 723 222 748 q 204 681 222 698 q 159 664 186 664 q 115 681 133 664 q 97 723 97 698 z "}}}
